<?xml version="1.0" encoding="UTF-8" standalone="no"?>
<!DOCTYPE svg PUBLIC "-//W3C//DTD SVG 1.1//EN"
 "http://www.w3.org/Graphics/SVG/1.1/DTD/svg11.dtd">
<!-- Generated by graphviz version 14.1.4 (20260321.0153)
 -->
<!-- Title: ems_topological_energy_graph Pages: 1 -->
<svg width="1703pt" height="377pt"
 viewBox="0.00 0.00 1703.00 377.00" xmlns="http://www.w3.org/2000/svg" xmlns:xlink="http://www.w3.org/1999/xlink">
<g id="graph0" class="graph" transform="scale(1 1) rotate(0) translate(18 359.23)">
<title>ems_topological_energy_graph</title>
<polygon fill="white" stroke="none" points="-18,18 -18,-359.23 1684.51,-359.23 1684.51,18 -18,18"/>
<g id="clust1" class="cluster">
<title>cluster_fragments</title>
<path fill="white" stroke="#cbd5e1" d="M20,-132.6C20,-132.6 158.52,-132.6 158.52,-132.6 164.52,-132.6 170.52,-138.6 170.52,-144.6 170.52,-144.6 170.52,-276.6 170.52,-276.6 170.52,-282.6 164.52,-288.6 158.52,-288.6 158.52,-288.6 20,-288.6 20,-288.6 14,-288.6 8,-282.6 8,-276.6 8,-276.6 8,-144.6 8,-144.6 8,-138.6 14,-132.6 20,-132.6"/>
<text xml:space="preserve" text-anchor="middle" x="89.26" y="-271.3" font-family="Times,serif" font-size="14.00">Fragments</text>
</g>
<!-- node_primary_dc&#45;&gt;node_switchboard -->
<g id="edge13" class="edge">
<title>node_primary_dc&#45;&gt;node_switchboard</title>
<g id="a_edge13"><a xlink:title="primary_acdc: directional_limit: limit a&#45;&gt;b=10, b&#45;&gt;a=10, exclusive">
<path fill="none" stroke="#64748b" d="M648.27,-85.86C683.3,-94.05 732.5,-105.56 769.68,-114.26"/>
<polygon fill="#64748b" stroke="#64748b" points="769.05,-116.63 776.43,-115.84 770.17,-111.86 769.05,-116.63"/>
</a>
</g>
<text xml:space="preserve" text-anchor="middle" x="713.05" y="-147.37" font-family="Helvetica,sans-Serif" font-size="9.00">directional_limit</text>
<text xml:space="preserve" text-anchor="middle" x="713.05" y="-137.62" font-family="Helvetica,sans-Serif" font-size="9.00">DirectionalLimit</text>
<text xml:space="preserve" text-anchor="middle" x="713.05" y="-127.87" font-family="Helvetica,sans-Serif" font-size="9.00">limit ex</text>
<text xml:space="preserve" text-anchor="middle" x="713.05" y="-118.12" font-family="Helvetica,sans-Serif" font-size="9.00">ab&lt;=10</text>
<text xml:space="preserve" text-anchor="middle" x="713.05" y="-108.37" font-family="Helvetica,sans-Serif" font-size="9.00">ba&lt;=10</text>
</g>
<!-- node_primary_dc&#45;&gt;connection_battery_primary_link_junction_1 -->
<g id="edge3" class="edge">
<title>node_primary_dc&#45;&gt;connection_battery_primary_link_junction_1</title>
<g id="a_edge3"><a xlink:title="battery_primary_link: directional_limit: limit a&#45;&gt;b=11, b&#45;&gt;a=10, exclusive">
<path fill="none" stroke="#64748b" d="M628.17,-53.56C642.31,-41.97 661.26,-28.94 680.8,-22.85 729.16,-7.78 791.34,-20.02 813.83,-25.39"/>
<polygon fill="#64748b" stroke="#64748b" points="813.05,-27.72 820.44,-27.08 814.26,-22.97 813.05,-27.72"/>
</a>
</g>
<text xml:space="preserve" text-anchor="middle" x="713.05" y="-63.05" font-family="Helvetica,sans-Serif" font-size="9.00">directional_limit</text>
<text xml:space="preserve" text-anchor="middle" x="713.05" y="-53.3" font-family="Helvetica,sans-Serif" font-size="9.00">DirectionalLimit</text>
<text xml:space="preserve" text-anchor="middle" x="713.05" y="-43.55" font-family="Helvetica,sans-Serif" font-size="9.00">limit ex</text>
<text xml:space="preserve" text-anchor="middle" x="713.05" y="-33.8" font-family="Helvetica,sans-Serif" font-size="9.00">ab&lt;=11</text>
<text xml:space="preserve" text-anchor="middle" x="713.05" y="-24.05" font-family="Helvetica,sans-Serif" font-size="9.00">ba&lt;=10</text>
</g>
<!-- node_pv_primary&#45;&gt;connection_pv_primary_link_junction_1 -->
<g id="edge14" class="edge">
<title>node_pv_primary&#45;&gt;connection_pv_primary_link_junction_1</title>
<g id="a_edge14"><a xlink:title="pv_primary_link: directional_limit: limit a&#45;&gt;b=10, b&#45;&gt;a=0">
<path fill="none" stroke="#64748b" d="M122.46,-75.6C170.03,-75.6 256.48,-75.6 284.46,-75.6"/>
<polygon fill="#64748b" stroke="#64748b" points="284.21,-78.05 291.21,-75.6 284.21,-73.15 284.21,-78.05"/>
</a>
</g>
<text xml:space="preserve" text-anchor="middle" x="227.77" y="-115.8" font-family="Helvetica,sans-Serif" font-size="9.00">directional_limit</text>
<text xml:space="preserve" text-anchor="middle" x="227.77" y="-106.05" font-family="Helvetica,sans-Serif" font-size="9.00">DirectionalLimit</text>
<text xml:space="preserve" text-anchor="middle" x="227.77" y="-96.3" font-family="Helvetica,sans-Serif" font-size="9.00">limit</text>
<text xml:space="preserve" text-anchor="middle" x="227.77" y="-86.55" font-family="Helvetica,sans-Serif" font-size="9.00">ab&lt;=10</text>
<text xml:space="preserve" text-anchor="middle" x="227.77" y="-76.8" font-family="Helvetica,sans-Serif" font-size="9.00">ba&lt;=0</text>
</g>
<!-- node_switchboard&#45;&gt;connection_base_load_link_junction_1 -->
<g id="edge1" class="edge">
<title>node_switchboard&#45;&gt;connection_base_load_link_junction_1</title>
<g id="a_edge1"><a xlink:title="base_load_link: directional_limit: limit a&#45;&gt;b=unbounded, b&#45;&gt;a=0">
<path fill="none" stroke="#64748b" d="M833.6,-148.55C845.82,-175.72 869.67,-222.12 901.57,-252.6 929.34,-279.13 972.67,-296.9 990.93,-303.61"/>
<polygon fill="#64748b" stroke="#64748b" points="989.96,-305.87 997.38,-305.87 991.58,-301.24 989.96,-305.87"/>
</a>
</g>
<text xml:space="preserve" text-anchor="middle" x="933.82" y="-332.68" font-family="Helvetica,sans-Serif" font-size="9.00">directional_limit</text>
<text xml:space="preserve" text-anchor="middle" x="933.82" y="-322.93" font-family="Helvetica,sans-Serif" font-size="9.00">DirectionalLimit</text>
<text xml:space="preserve" text-anchor="middle" x="933.82" y="-313.18" font-family="Helvetica,sans-Serif" font-size="9.00">limit</text>
<text xml:space="preserve" text-anchor="middle" x="933.82" y="-303.43" font-family="Helvetica,sans-Serif" font-size="9.00">ab&lt;=inf</text>
<text xml:space="preserve" text-anchor="middle" x="933.82" y="-293.68" font-family="Helvetica,sans-Serif" font-size="9.00">ba&lt;=0</text>
</g>
<!-- node_switchboard&#45;&gt;connection_ev_tessie_link_junction_1 -->
<g id="edge7" class="edge">
<title>node_switchboard&#45;&gt;connection_ev_tessie_link_junction_1</title>
<g id="a_edge7"><a xlink:title="ev_tessie_link: directional_limit: limit a&#45;&gt;b=7.4, b&#45;&gt;a=0">
<path fill="none" stroke="#64748b" d="M869.07,-147.76C910.97,-167.63 970.31,-195.76 991.56,-205.83"/>
<polygon fill="#64748b" stroke="#64748b" points="990.26,-207.93 997.64,-208.71 992.36,-203.5 990.26,-207.93"/>
</a>
</g>
<text xml:space="preserve" text-anchor="middle" x="933.82" y="-233.92" font-family="Helvetica,sans-Serif" font-size="9.00">directional_limit</text>
<text xml:space="preserve" text-anchor="middle" x="933.82" y="-224.17" font-family="Helvetica,sans-Serif" font-size="9.00">DirectionalLimit</text>
<text xml:space="preserve" text-anchor="middle" x="933.82" y="-214.42" font-family="Helvetica,sans-Serif" font-size="9.00">limit</text>
<text xml:space="preserve" text-anchor="middle" x="933.82" y="-204.67" font-family="Helvetica,sans-Serif" font-size="9.00">ab&lt;=7.4</text>
<text xml:space="preserve" text-anchor="middle" x="933.82" y="-194.92" font-family="Helvetica,sans-Serif" font-size="9.00">ba&lt;=0</text>
</g>
<!-- node_switchboard&#45;&gt;connection_grid_link_junction_1 -->
<g id="edge9" class="edge">
<title>node_switchboard&#45;&gt;connection_grid_link_junction_1</title>
<g id="a_edge9"><a xlink:title="grid_link: directional_limit: limit a&#45;&gt;b=13, b&#45;&gt;a=13, exclusive">
<path fill="none" stroke="#64748b" d="M868.97,-113.87C879.57,-111.37 890.9,-109.13 901.57,-107.85 930.03,-104.44 937.81,-103.03 966.07,-107.85 974.99,-109.37 984.69,-113.02 991.34,-115.85"/>
<polygon fill="#64748b" stroke="#64748b" points="989.95,-117.91 997.33,-118.58 991.97,-113.45 989.95,-117.91"/>
</a>
</g>
<text xml:space="preserve" text-anchor="middle" x="933.82" y="-148.05" font-family="Helvetica,sans-Serif" font-size="9.00">directional_limit</text>
<text xml:space="preserve" text-anchor="middle" x="933.82" y="-138.3" font-family="Helvetica,sans-Serif" font-size="9.00">DirectionalLimit</text>
<text xml:space="preserve" text-anchor="middle" x="933.82" y="-128.55" font-family="Helvetica,sans-Serif" font-size="9.00">limit ex</text>
<text xml:space="preserve" text-anchor="middle" x="933.82" y="-118.8" font-family="Helvetica,sans-Serif" font-size="9.00">ab&lt;=13</text>
<text xml:space="preserve" text-anchor="middle" x="933.82" y="-109.05" font-family="Helvetica,sans-Serif" font-size="9.00">ba&lt;=13</text>
</g>
<!-- connection_base_load_link_junction_1&#45;&gt;node_base_load -->
<g id="edge2" class="edge">
<title>connection_base_load_link_junction_1&#45;&gt;node_base_load</title>
<g id="a_edge2"><a xlink:title="base_load_link: fixed_flow: dynamic per&#45;timestep policy">
<path fill="none" stroke="#64748b" d="M1002.34,-306.6C1011.71,-306.6 1097.73,-306.6 1149.53,-306.6"/>
<polygon fill="#64748b" stroke="#64748b" points="1149.33,-309.05 1156.33,-306.6 1149.33,-304.15 1149.33,-309.05"/>
</a>
</g>
<text xml:space="preserve" text-anchor="middle" x="1074.7" y="-317.55" font-family="Helvetica,sans-Serif" font-size="9.00">fixed_flow</text>
<text xml:space="preserve" text-anchor="middle" x="1074.7" y="-307.8" font-family="Helvetica,sans-Serif" font-size="9.00">FixedFlow</text>
</g>
<!-- connection_battery_primary_link_junction_1&#45;&gt;connection_battery_primary_link_junction_2 -->
<g id="edge4" class="edge">
<title>connection_battery_primary_link_junction_1&#45;&gt;connection_battery_primary_link_junction_2</title>
<g id="a_edge4"><a xlink:title="battery_primary_link: wear_cost: dynamic per&#45;timestep policy">
<path fill="none" stroke="#64748b" d="M825.22,-27.6C836.02,-27.6 955.99,-27.6 990.36,-27.6"/>
<polygon fill="#64748b" stroke="#64748b" points="990.27,-30.05 997.27,-27.6 990.27,-25.15 990.27,-30.05"/>
</a>
</g>
<text xml:space="preserve" text-anchor="middle" x="933.82" y="-38.55" font-family="Helvetica,sans-Serif" font-size="9.00">wear_cost</text>
<text xml:space="preserve" text-anchor="middle" x="933.82" y="-28.8" font-family="Helvetica,sans-Serif" font-size="9.00">LinearCost</text>
</g>
<!-- connection_battery_primary_link_junction_2&#45;&gt;connection_battery_primary_link_junction_3 -->
<g id="edge5" class="edge">
<title>connection_battery_primary_link_junction_2&#45;&gt;connection_battery_primary_link_junction_3</title>
<g id="a_edge5"><a xlink:title="battery_primary_link: time_cost: dynamic per&#45;timestep policy">
<path fill="none" stroke="#64748b" d="M1002.34,-27.6C1014,-27.6 1144.35,-27.6 1179.75,-27.6"/>
<polygon fill="#64748b" stroke="#64748b" points="1179.3,-30.05 1186.3,-27.6 1179.3,-25.15 1179.3,-30.05"/>
</a>
</g>
<text xml:space="preserve" text-anchor="middle" x="1074.7" y="-38.55" font-family="Helvetica,sans-Serif" font-size="9.00">time_cost</text>
<text xml:space="preserve" text-anchor="middle" x="1074.7" y="-28.8" font-family="Helvetica,sans-Serif" font-size="9.00">LinearCost</text>
</g>
<!-- connection_battery_primary_link_junction_3&#45;&gt;node_battery_primary -->
<g id="edge6" class="edge">
<title>connection_battery_primary_link_junction_3&#45;&gt;node_battery_primary</title>
<g id="a_edge6"><a xlink:title="battery_primary_link: efficiency: efficiency a&#45;&gt;b=0.95, b&#45;&gt;a=0.95">
<path fill="none" stroke="#64748b" d="M1191.31,-27.54C1196.96,-27.04 1234.3,-23.82 1264.72,-22.85 1301.7,-21.67 1310.99,-21.77 1347.97,-22.85 1355.87,-23.08 1364.19,-23.43 1372.38,-23.85"/>
<polygon fill="#64748b" stroke="#64748b" points="1372.21,-26.29 1379.33,-24.22 1372.47,-21.4 1372.21,-26.29"/>
</a>
</g>
<text xml:space="preserve" text-anchor="middle" x="1306.35" y="-63.05" font-family="Helvetica,sans-Serif" font-size="9.00">efficiency</text>
<text xml:space="preserve" text-anchor="middle" x="1306.35" y="-53.3" font-family="Helvetica,sans-Serif" font-size="9.00">DirectionalEfficiency</text>
<text xml:space="preserve" text-anchor="middle" x="1306.35" y="-43.55" font-family="Helvetica,sans-Serif" font-size="9.00">eff</text>
<text xml:space="preserve" text-anchor="middle" x="1306.35" y="-33.8" font-family="Helvetica,sans-Serif" font-size="9.00">ab=0.95</text>
<text xml:space="preserve" text-anchor="middle" x="1306.35" y="-24.05" font-family="Helvetica,sans-Serif" font-size="9.00">ba=0.95</text>
</g>
<!-- connection_ev_tessie_link_junction_1&#45;&gt;node_tessie -->
<g id="edge8" class="edge">
<title>connection_ev_tessie_link_junction_1&#45;&gt;node_tessie</title>
<g id="a_edge8"><a xlink:title="ev_tessie_link: charge_control: EvChargeControl">
<path fill="none" stroke="#64748b" d="M1002.34,-209.6C1011.08,-209.6 1086.6,-209.6 1138.74,-209.6"/>
<polygon fill="#64748b" stroke="#64748b" points="1138.71,-212.05 1145.71,-209.6 1138.71,-207.15 1138.71,-212.05"/>
</a>
</g>
<text xml:space="preserve" text-anchor="middle" x="1074.7" y="-220.55" font-family="Helvetica,sans-Serif" font-size="9.00">charge_control</text>
<text xml:space="preserve" text-anchor="middle" x="1074.7" y="-210.8" font-family="Helvetica,sans-Serif" font-size="9.00">EvChargeControl</text>
</g>
<!-- connection_grid_link_junction_1&#45;&gt;connection_grid_link_junction_2 -->
<g id="edge10" class="edge">
<title>connection_grid_link_junction_1&#45;&gt;connection_grid_link_junction_2</title>
<g id="a_edge10"><a xlink:title="grid_link: import_soft_limit: dynamic per&#45;timestep policy">
<path fill="none" stroke="#64748b" d="M1002.34,-119.61C1014,-119.8 1144.35,-121.89 1179.75,-122.46"/>
<polygon fill="#64748b" stroke="#64748b" points="1179.26,-124.9 1186.3,-122.56 1179.34,-120 1179.26,-124.9"/>
</a>
</g>
<text xml:space="preserve" text-anchor="middle" x="1074.7" y="-132.32" font-family="Helvetica,sans-Serif" font-size="9.00">import_soft_limit</text>
<text xml:space="preserve" text-anchor="middle" x="1074.7" y="-122.57" font-family="Helvetica,sans-Serif" font-size="9.00">SoftDirectionalLimit</text>
</g>
<!-- connection_grid_link_junction_2&#45;&gt;connection_grid_link_junction_3 -->
<g id="edge11" class="edge">
<title>connection_grid_link_junction_2&#45;&gt;connection_grid_link_junction_3</title>
<g id="a_edge11"><a xlink:title="grid_link: grid_energy_cost: dynamic per&#45;timestep policy">
<path fill="none" stroke="#64748b" d="M1191.27,-122.61C1203.61,-122.71 1378.73,-124.17 1420.64,-124.52"/>
<polygon fill="#64748b" stroke="#64748b" points="1420.43,-126.97 1427.45,-124.58 1420.47,-122.07 1420.43,-126.97"/>
</a>
</g>
<text xml:space="preserve" text-anchor="middle" x="1306.35" y="-134.85" font-family="Helvetica,sans-Serif" font-size="9.00">grid_energy_cost</text>
<text xml:space="preserve" text-anchor="middle" x="1306.35" y="-125.1" font-family="Helvetica,sans-Serif" font-size="9.00">LinearCost</text>
</g>
<!-- connection_grid_link_junction_3&#45;&gt;node_grid -->
<g id="edge12" class="edge">
<title>connection_grid_link_junction_3&#45;&gt;node_grid</title>
<g id="a_edge12"><a xlink:title="grid_link: grid_early_cost: dynamic per&#45;timestep policy">
<path fill="none" stroke="#64748b" d="M1432.52,-124.6C1443.22,-124.6 1545.18,-124.6 1600.91,-124.6"/>
<polygon fill="#64748b" stroke="#64748b" points="1600.59,-127.05 1607.59,-124.6 1600.59,-122.15 1600.59,-127.05"/>
</a>
</g>
<text xml:space="preserve" text-anchor="middle" x="1544.74" y="-135.55" font-family="Helvetica,sans-Serif" font-size="9.00">grid_early_cost</text>
<text xml:space="preserve" text-anchor="middle" x="1544.74" y="-125.8" font-family="Helvetica,sans-Serif" font-size="9.00">LinearCost</text>
</g>
<!-- connection_pv_primary_link_junction_1&#45;&gt;connection_pv_primary_link_junction_2 -->
<g id="edge15" class="edge">
<title>connection_pv_primary_link_junction_1&#45;&gt;connection_pv_primary_link_junction_2</title>
<g id="a_edge15"><a xlink:title="pv_primary_link: upper_bound: dynamic per&#45;timestep policy">
<path fill="none" stroke="#64748b" d="M296.24,-75.6C304.86,-75.6 382.3,-75.6 408.91,-75.6"/>
<polygon fill="#64748b" stroke="#64748b" points="408.62,-78.05 415.62,-75.6 408.62,-73.15 408.62,-78.05"/>
</a>
</g>
<text xml:space="preserve" text-anchor="middle" x="356.65" y="-86.55" font-family="Helvetica,sans-Serif" font-size="9.00">upper_bound</text>
<text xml:space="preserve" text-anchor="middle" x="356.65" y="-76.8" font-family="Helvetica,sans-Serif" font-size="9.00">UpperBound</text>
</g>
<!-- connection_pv_primary_link_junction_2&#45;&gt;node_primary_dc -->
<g id="edge16" class="edge">
<title>connection_pv_primary_link_junction_2&#45;&gt;node_primary_dc</title>
<g id="a_edge16"><a xlink:title="pv_primary_link: curtail_tracking: PvCurtailTracking">
<path fill="none" stroke="#64748b" d="M420.65,-75.6C429.01,-75.6 499.96,-75.6 550.69,-75.6"/>
<polygon fill="#64748b" stroke="#64748b" points="550.45,-78.05 557.45,-75.6 550.45,-73.15 550.45,-78.05"/>
</a>
</g>
<text xml:space="preserve" text-anchor="middle" x="489.66" y="-86.55" font-family="Helvetica,sans-Serif" font-size="9.00">curtail_tracking</text>
<text xml:space="preserve" text-anchor="middle" x="489.66" y="-76.8" font-family="Helvetica,sans-Serif" font-size="9.00">PvCurtailTracking</text>
</g>
<!-- node_base_load -->
<g id="node1" class="node">
<title>node_base_load</title>
<g id="a_node1"><a xlink:title="base_load (consumer)">
<path fill="#fdf2f8" stroke="black" d="M1209.22,-328.2C1209.22,-328.2 1169.95,-328.2 1169.95,-328.2 1163.95,-328.2 1157.95,-322.2 1157.95,-316.2 1157.95,-316.2 1157.95,-297 1157.95,-297 1157.95,-291 1163.95,-285 1169.95,-285 1169.95,-285 1209.22,-285 1209.22,-285 1215.22,-285 1221.22,-291 1221.22,-297 1221.22,-297 1221.22,-316.2 1221.22,-316.2 1221.22,-322.2 1215.22,-328.2 1209.22,-328.2"/>
<text xml:space="preserve" text-anchor="middle" x="1189.59" y="-314.15" font-family="Helvetica,sans-Serif" font-size="11.00">base_load</text>
<text xml:space="preserve" text-anchor="middle" x="1189.59" y="-302.15" font-family="Helvetica,sans-Serif" font-size="11.00">Base Load</text>
<text xml:space="preserve" text-anchor="middle" x="1189.59" y="-290.15" font-family="Helvetica,sans-Serif" font-size="11.00">consumer</text>
</a>
</g>
</g>
<!-- node_battery_primary -->
<g id="node2" class="node">
<title>node_battery_primary</title>
<g id="a_node2"><a xlink:title="battery_primary (prosumer)">
<path fill="#ecfdf5" stroke="black" d="M1468.24,-55.2C1468.24,-55.2 1392.97,-55.2 1392.97,-55.2 1386.97,-55.2 1380.97,-49.2 1380.97,-43.2 1380.97,-43.2 1380.97,-12 1380.97,-12 1380.97,-6 1386.97,0 1392.97,0 1392.97,0 1468.24,0 1468.24,0 1474.24,0 1480.24,-6 1480.24,-12 1480.24,-12 1480.24,-43.2 1480.24,-43.2 1480.24,-49.2 1474.24,-55.2 1468.24,-55.2"/>
<text xml:space="preserve" text-anchor="middle" x="1430.61" y="-41.15" font-family="Helvetica,sans-Serif" font-size="11.00">battery_primary</text>
<text xml:space="preserve" text-anchor="middle" x="1430.61" y="-29.15" font-family="Helvetica,sans-Serif" font-size="11.00">Battery Primary</text>
<text xml:space="preserve" text-anchor="middle" x="1430.61" y="-17.15" font-family="Helvetica,sans-Serif" font-size="11.00">prosumer</text>
<text xml:space="preserve" text-anchor="middle" x="1430.61" y="-5.15" font-family="Helvetica,sans-Serif" font-size="11.00">31.844 / 41.9 kWh</text>
</a>
</g>
</g>
<!-- node_grid -->
<g id="node3" class="node">
<title>node_grid</title>
<g id="a_node3"><a xlink:title="grid (prosumer)">
<path fill="#f8fafc" stroke="black" d="M1654.51,-146.2C1654.51,-146.2 1621.24,-146.2 1621.24,-146.2 1615.24,-146.2 1609.24,-140.2 1609.24,-134.2 1609.24,-134.2 1609.24,-115 1609.24,-115 1609.24,-109 1615.24,-103 1621.24,-103 1621.24,-103 1654.51,-103 1654.51,-103 1660.51,-103 1666.51,-109 1666.51,-115 1666.51,-115 1666.51,-134.2 1666.51,-134.2 1666.51,-140.2 1660.51,-146.2 1654.51,-146.2"/>
<text xml:space="preserve" text-anchor="middle" x="1637.88" y="-132.15" font-family="Helvetica,sans-Serif" font-size="11.00">grid</text>
<text xml:space="preserve" text-anchor="middle" x="1637.88" y="-120.15" font-family="Helvetica,sans-Serif" font-size="11.00">Grid</text>
<text xml:space="preserve" text-anchor="middle" x="1637.88" y="-108.15" font-family="Helvetica,sans-Serif" font-size="11.00">prosumer</text>
</a>
</g>
</g>
<!-- node_primary_dc -->
<g id="node4" class="node">
<title>node_primary_dc</title>
<g id="a_node4"><a xlink:title="primary_dc (bus)">
<path fill="#eff6ff" stroke="black" d="M635.8,-97.2C635.8,-97.2 571.03,-97.2 571.03,-97.2 565.03,-97.2 559.03,-91.2 559.03,-85.2 559.03,-85.2 559.03,-66 559.03,-66 559.03,-60 565.03,-54 571.03,-54 571.03,-54 635.8,-54 635.8,-54 641.8,-54 647.8,-60 647.8,-66 647.8,-66 647.8,-85.2 647.8,-85.2 647.8,-91.2 641.8,-97.2 635.8,-97.2"/>
<text xml:space="preserve" text-anchor="middle" x="603.42" y="-83.15" font-family="Helvetica,sans-Serif" font-size="11.00">primary_dc</text>
<text xml:space="preserve" text-anchor="middle" x="603.42" y="-71.15" font-family="Helvetica,sans-Serif" font-size="11.00">DC Bus primary</text>
<text xml:space="preserve" text-anchor="middle" x="603.42" y="-59.15" font-family="Helvetica,sans-Serif" font-size="11.00">bus</text>
</a>
</g>
</g>
<!-- node_pv_primary -->
<g id="node5" class="node">
<title>node_pv_primary</title>
<g id="a_node5"><a xlink:title="pv_primary (producer)">
<path fill="#fefce8" stroke="black" d="M110.02,-97.2C110.02,-97.2 68.5,-97.2 68.5,-97.2 62.5,-97.2 56.5,-91.2 56.5,-85.2 56.5,-85.2 56.5,-66 56.5,-66 56.5,-60 62.5,-54 68.5,-54 68.5,-54 110.02,-54 110.02,-54 116.02,-54 122.02,-60 122.02,-66 122.02,-66 122.02,-85.2 122.02,-85.2 122.02,-91.2 116.02,-97.2 110.02,-97.2"/>
<text xml:space="preserve" text-anchor="middle" x="89.26" y="-83.15" font-family="Helvetica,sans-Serif" font-size="11.00">pv_primary</text>
<text xml:space="preserve" text-anchor="middle" x="89.26" y="-71.15" font-family="Helvetica,sans-Serif" font-size="11.00">PV primary</text>
<text xml:space="preserve" text-anchor="middle" x="89.26" y="-59.15" font-family="Helvetica,sans-Serif" font-size="11.00">producer</text>
</a>
</g>
</g>
<!-- node_switchboard -->
<g id="node6" class="node">
<title>node_switchboard</title>
<g id="a_node6"><a xlink:title="switchboard (bus)">
<path fill="#eff6ff" stroke="black" d="M856.57,-148.2C856.57,-148.2 790.3,-148.2 790.3,-148.2 784.3,-148.2 778.3,-142.2 778.3,-136.2 778.3,-136.2 778.3,-117 778.3,-117 778.3,-111 784.3,-105 790.3,-105 790.3,-105 856.57,-105 856.57,-105 862.57,-105 868.57,-111 868.57,-117 868.57,-117 868.57,-136.2 868.57,-136.2 868.57,-142.2 862.57,-148.2 856.57,-148.2"/>
<text xml:space="preserve" text-anchor="middle" x="823.44" y="-134.15" font-family="Helvetica,sans-Serif" font-size="11.00">switchboard</text>
<text xml:space="preserve" text-anchor="middle" x="823.44" y="-122.15" font-family="Helvetica,sans-Serif" font-size="11.00">AC Switchboard</text>
<text xml:space="preserve" text-anchor="middle" x="823.44" y="-110.15" font-family="Helvetica,sans-Serif" font-size="11.00">bus</text>
</a>
</g>
</g>
<!-- node_tessie -->
<g id="node7" class="node">
<title>node_tessie</title>
<g id="a_node7"><a xlink:title="tessie (prosumer)">
<path fill="#ecfdf5" stroke="black" d="M1219.72,-237.2C1219.72,-237.2 1159.45,-237.2 1159.45,-237.2 1153.45,-237.2 1147.45,-231.2 1147.45,-225.2 1147.45,-225.2 1147.45,-194 1147.45,-194 1147.45,-188 1153.45,-182 1159.45,-182 1159.45,-182 1219.72,-182 1219.72,-182 1225.72,-182 1231.72,-188 1231.72,-194 1231.72,-194 1231.72,-225.2 1231.72,-225.2 1231.72,-231.2 1225.72,-237.2 1219.72,-237.2"/>
<text xml:space="preserve" text-anchor="middle" x="1189.59" y="-223.15" font-family="Helvetica,sans-Serif" font-size="11.00">tessie</text>
<text xml:space="preserve" text-anchor="middle" x="1189.59" y="-211.15" font-family="Helvetica,sans-Serif" font-size="11.00">Tessie</text>
<text xml:space="preserve" text-anchor="middle" x="1189.59" y="-199.15" font-family="Helvetica,sans-Serif" font-size="11.00">prosumer</text>
<text xml:space="preserve" text-anchor="middle" x="1189.59" y="-187.15" font-family="Helvetica,sans-Serif" font-size="11.00">45.24 / 78 kWh</text>
</a>
</g>
</g>
<!-- connection_base_load_link_junction_1 -->
<g id="node8" class="node">
<title>connection_base_load_link_junction_1</title>
<ellipse fill="black" stroke="black" cx="1000.51" cy="-306.6" rx="1.44" ry="1.44"/>
</g>
<!-- connection_battery_primary_link_junction_1 -->
<g id="node9" class="node">
<title>connection_battery_primary_link_junction_1</title>
<ellipse fill="black" stroke="black" cx="823.44" cy="-27.6" rx="1.44" ry="1.44"/>
</g>
<!-- connection_battery_primary_link_junction_2 -->
<g id="node10" class="node">
<title>connection_battery_primary_link_junction_2</title>
<ellipse fill="black" stroke="black" cx="1000.51" cy="-27.6" rx="1.44" ry="1.44"/>
</g>
<!-- connection_battery_primary_link_junction_3 -->
<g id="node11" class="node">
<title>connection_battery_primary_link_junction_3</title>
<ellipse fill="black" stroke="black" cx="1189.59" cy="-27.6" rx="1.44" ry="1.44"/>
</g>
<!-- connection_ev_tessie_link_junction_1 -->
<g id="node12" class="node">
<title>connection_ev_tessie_link_junction_1</title>
<ellipse fill="black" stroke="black" cx="1000.51" cy="-209.6" rx="1.44" ry="1.44"/>
</g>
<!-- connection_grid_link_junction_1 -->
<g id="node13" class="node">
<title>connection_grid_link_junction_1</title>
<ellipse fill="black" stroke="black" cx="1000.51" cy="-119.6" rx="1.44" ry="1.44"/>
</g>
<!-- connection_grid_link_junction_2 -->
<g id="node14" class="node">
<title>connection_grid_link_junction_2</title>
<ellipse fill="black" stroke="black" cx="1189.59" cy="-122.6" rx="1.44" ry="1.44"/>
</g>
<!-- connection_grid_link_junction_3 -->
<g id="node15" class="node">
<title>connection_grid_link_junction_3</title>
<ellipse fill="black" stroke="black" cx="1430.61" cy="-124.6" rx="1.44" ry="1.44"/>
</g>
<!-- connection_pv_primary_link_junction_1 -->
<g id="node16" class="node">
<title>connection_pv_primary_link_junction_1</title>
<ellipse fill="black" stroke="black" cx="294.46" cy="-75.6" rx="1.44" ry="1.44"/>
</g>
<!-- connection_pv_primary_link_junction_2 -->
<g id="node17" class="node">
<title>connection_pv_primary_link_junction_2</title>
<ellipse fill="black" stroke="black" cx="418.84" cy="-75.6" rx="1.44" ry="1.44"/>
</g>
<!-- fragment_0 -->
<g id="node18" class="node">
<title>fragment_0</title>
<polygon fill="#fff7ed" stroke="black" points="152.02,-176.6 20.5,-176.6 20.5,-140.6 158.02,-140.6 158.02,-170.6 152.02,-176.6"/>
<polyline fill="none" stroke="black" points="152.02,-176.6 152.02,-170.6"/>
<polyline fill="none" stroke="black" points="158.02,-170.6 152.02,-170.6"/>
<text xml:space="preserve" text-anchor="middle" x="89.26" y="-154.15" font-family="Helvetica,sans-Serif" font-size="11.00">EvSocIncentivesFragment</text>
</g>
<!-- fragment_1 -->
<g id="node19" class="node">
<title>fragment_1</title>
<polygon fill="#fff7ed" stroke="black" points="156.52,-255.6 16,-255.6 16,-219.6 162.52,-219.6 162.52,-249.6 156.52,-255.6"/>
<polyline fill="none" stroke="black" points="156.52,-255.6 156.52,-249.6"/>
<polyline fill="none" stroke="black" points="162.52,-249.6 156.52,-249.6"/>
<text xml:space="preserve" text-anchor="middle" x="89.26" y="-233.15" font-family="Helvetica,sans-Serif" font-size="11.00">BatteryExportReservePolicy</text>
</g>
</g>
</svg>
