<?xml version="1.0" encoding="utf-8" standalone="no"?>
<!DOCTYPE svg PUBLIC "-//W3C//DTD SVG 1.1//EN"
  "http://www.w3.org/Graphics/SVG/1.1/DTD/svg11.dtd">
<svg xmlns:xlink="http://www.w3.org/1999/xlink" width="1152pt" height="648pt" viewBox="0 0 1152 648" xmlns="http://www.w3.org/2000/svg" version="1.1">
 <metadata>
  <rdf:RDF xmlns:dc="http://purl.org/dc/elements/1.1/" xmlns:cc="http://creativecommons.org/ns#" xmlns:rdf="http://www.w3.org/1999/02/22-rdf-syntax-ns#">
   <cc:Work>
    <dc:type rdf:resource="http://purl.org/dc/dcmitype/StillImage"/>
    <dc:format>image/svg+xml</dc:format>
    <dc:creator>
     <cc:Agent>
      <dc:title>Matplotlib v3.10.9, https://matplotlib.org/</dc:title>
     </cc:Agent>
    </dc:creator>
   </cc:Work>
  </rdf:RDF>
 </metadata>
 <defs>
  <style type="text/css">*{stroke-linejoin: round; stroke-linecap: butt}</style>
 </defs>
 <g id="figure_1">
  <g id="patch_1">
   <path d="M 0 648 
L 1152 648 
L 1152 0 
L 0 0 
z
" style="fill: #ffffff"/>
  </g>
  <g id="axes_1">
   <g id="patch_2">
    <path d="M 69.12 544.32 
L 967.68 544.32 
L 967.68 51.84 
L 69.12 51.84 
z
" style="fill: #ffffff"/>
   </g>
   <g id="FillBetweenPolyCollection_1">
    <defs>
     <path id="m264a854891" d="M 69.12 -349.92 
L 69.12 -351.146409 
L 71.418107 -351.146409 
L 71.418107 -349.92 
L 73.716215 -349.92 
L 73.716215 -349.92 
L 76.014322 -349.92 
L 76.014322 -349.92 
L 78.31243 -349.92 
L 78.31243 -349.92 
L 80.610537 -349.92 
L 80.610537 -349.92 
L 82.908645 -349.92 
L 82.908645 -349.92 
L 85.206752 -349.92 
L 85.206752 -349.92 
L 87.504859 -349.92 
L 87.504859 -349.92 
L 89.802967 -349.92 
L 89.802967 -349.92 
L 92.101074 -349.92 
L 92.101074 -349.92 
L 94.399182 -349.92 
L 94.399182 -349.92 
L 96.697289 -349.92 
L 96.697289 -349.92 
L 98.995396 -349.92 
L 98.995396 -349.92 
L 101.293504 -349.92 
L 101.293504 -349.92 
L 103.591611 -349.92 
L 103.591611 -349.92 
L 105.889719 -349.92 
L 105.889719 -349.92 
L 108.187826 -349.92 
L 108.187826 -349.92 
L 110.485934 -349.92 
L 110.485934 -349.92 
L 112.784041 -349.92 
L 112.784041 -349.92 
L 115.082148 -349.92 
L 115.082148 -349.92 
L 117.380256 -349.92 
L 117.380256 -349.92 
L 119.678363 -349.92 
L 119.678363 -349.92 
L 121.976471 -349.92 
L 121.976471 -349.92 
L 124.274578 -349.92 
L 124.274578 -349.92 
L 126.572685 -349.92 
L 126.572685 -349.92 
L 140.36133 -349.92 
L 140.36133 -349.92 
L 154.149974 -349.92 
L 154.149974 -349.92 
L 167.938619 -349.92 
L 167.938619 -349.92 
L 181.727263 -349.92 
L 181.727263 -349.92 
L 195.515908 -349.92 
L 195.515908 -349.92 
L 209.304552 -349.92 
L 209.304552 -349.92 
L 223.093197 -349.92 
L 223.093197 -349.92 
L 236.881841 -349.92 
L 236.881841 -349.92 
L 250.670486 -349.92 
L 250.670486 -349.92 
L 264.45913 -349.92 
L 264.45913 -349.92 
L 278.247775 -349.92 
L 278.247775 -349.92 
L 292.036419 -349.92 
L 292.036419 -349.92 
L 305.825064 -349.92 
L 305.825064 -349.92 
L 319.613708 -349.92 
L 319.613708 -349.92 
L 333.402353 -349.92 
L 333.402353 -351.124301 
L 347.190997 -351.124301 
L 347.190997 -357.128353 
L 360.979642 -357.128353 
L 360.979642 -377.258215 
L 374.768286 -377.258215 
L 374.768286 -399.709412 
L 388.556931 -399.709412 
L 388.556931 -421.834807 
L 402.345575 -421.834807 
L 402.345575 -442.982799 
L 416.13422 -442.982799 
L 416.13422 -463.194112 
L 429.922864 -463.194112 
L 429.922864 -483.33561 
L 443.711509 -483.33561 
L 443.711509 -502.680059 
L 457.500153 -502.680059 
L 457.500153 -521.396177 
L 471.288798 -521.396177 
L 471.288798 -535.213641 
L 485.077442 -535.213641 
L 485.077442 -545.307662 
L 498.866087 -545.307662 
L 498.866087 -555.576219 
L 512.654731 -555.576219 
L 512.654731 -565.798233 
L 526.443376 -565.798233 
L 526.443376 -570.539805 
L 540.23202 -570.539805 
L 540.23202 -573.774545 
L 554.020665 -573.774545 
L 554.020665 -573.175304 
L 567.809309 -573.175304 
L 567.809309 -570.394358 
L 581.597954 -570.394358 
L 581.597954 -564.605568 
L 595.386598 -564.605568 
L 595.386598 -555.971835 
L 609.175243 -555.971835 
L 609.175243 -539.524689 
L 622.963887 -539.524689 
L 622.963887 -517.858907 
L 636.752532 -517.858907 
L 636.752532 -495.238992 
L 650.541176 -495.238992 
L 650.541176 -471.37405 
L 664.329821 -471.37405 
L 664.329821 -440.772005 
L 678.118465 -440.772005 
L 678.118465 -407.226112 
L 691.90711 -407.226112 
L 691.90711 -370.590925 
L 705.695754 -370.590925 
L 705.695754 -354.236867 
L 719.484399 -354.236867 
L 719.484399 -349.92 
L 733.273043 -349.92 
L 733.273043 -349.92 
L 747.061688 -349.92 
L 747.061688 -349.92 
L 760.850332 -349.92 
L 760.850332 -349.92 
L 774.638977 -349.92 
L 774.638977 -349.92 
L 788.427621 -349.92 
L 788.427621 -349.92 
L 802.216266 -349.92 
L 802.216266 -349.92 
L 816.00491 -349.92 
L 816.00491 -349.92 
L 829.793555 -349.92 
L 829.793555 -349.92 
L 843.582199 -349.92 
L 843.582199 -349.92 
L 857.370844 -349.92 
L 857.370844 -349.92 
L 871.159488 -349.92 
L 871.159488 -349.92 
L 884.948133 -349.92 
L 884.948133 -349.92 
L 898.736777 -349.92 
L 898.736777 -349.92 
L 912.525422 -349.92 
L 912.525422 -349.92 
L 926.314066 -349.92 
L 926.314066 -349.92 
L 940.102711 -349.92 
L 940.102711 -349.92 
L 953.891355 -349.92 
L 953.891355 -349.92 
L 967.68 -349.92 
L 967.68 -349.92 
L 967.68 -349.92 
L 967.68 -349.92 
L 967.68 -349.92 
L 953.891355 -349.92 
L 953.891355 -349.92 
L 940.102711 -349.92 
L 940.102711 -349.92 
L 926.314066 -349.92 
L 926.314066 -349.92 
L 912.525422 -349.92 
L 912.525422 -349.92 
L 898.736777 -349.92 
L 898.736777 -349.92 
L 884.948133 -349.92 
L 884.948133 -349.92 
L 871.159488 -349.92 
L 871.159488 -349.92 
L 857.370844 -349.92 
L 857.370844 -349.92 
L 843.582199 -349.92 
L 843.582199 -349.92 
L 829.793555 -349.92 
L 829.793555 -349.92 
L 816.00491 -349.92 
L 816.00491 -349.92 
L 802.216266 -349.92 
L 802.216266 -349.92 
L 788.427621 -349.92 
L 788.427621 -349.92 
L 774.638977 -349.92 
L 774.638977 -349.92 
L 760.850332 -349.92 
L 760.850332 -349.92 
L 747.061688 -349.92 
L 747.061688 -349.92 
L 733.273043 -349.92 
L 733.273043 -349.92 
L 719.484399 -349.92 
L 719.484399 -349.92 
L 705.695754 -349.92 
L 705.695754 -349.92 
L 691.90711 -349.92 
L 691.90711 -349.92 
L 678.118465 -349.92 
L 678.118465 -349.92 
L 664.329821 -349.92 
L 664.329821 -349.92 
L 650.541176 -349.92 
L 650.541176 -349.92 
L 636.752532 -349.92 
L 636.752532 -349.92 
L 622.963887 -349.92 
L 622.963887 -349.92 
L 609.175243 -349.92 
L 609.175243 -349.92 
L 595.386598 -349.92 
L 595.386598 -349.92 
L 581.597954 -349.92 
L 581.597954 -349.92 
L 567.809309 -349.92 
L 567.809309 -349.92 
L 554.020665 -349.92 
L 554.020665 -349.92 
L 540.23202 -349.92 
L 540.23202 -349.92 
L 526.443376 -349.92 
L 526.443376 -349.92 
L 512.654731 -349.92 
L 512.654731 -349.92 
L 498.866087 -349.92 
L 498.866087 -349.92 
L 485.077442 -349.92 
L 485.077442 -349.92 
L 471.288798 -349.92 
L 471.288798 -349.92 
L 457.500153 -349.92 
L 457.500153 -349.92 
L 443.711509 -349.92 
L 443.711509 -349.92 
L 429.922864 -349.92 
L 429.922864 -349.92 
L 416.13422 -349.92 
L 416.13422 -349.92 
L 402.345575 -349.92 
L 402.345575 -349.92 
L 388.556931 -349.92 
L 388.556931 -349.92 
L 374.768286 -349.92 
L 374.768286 -349.92 
L 360.979642 -349.92 
L 360.979642 -349.92 
L 347.190997 -349.92 
L 347.190997 -349.92 
L 333.402353 -349.92 
L 333.402353 -349.92 
L 319.613708 -349.92 
L 319.613708 -349.92 
L 305.825064 -349.92 
L 305.825064 -349.92 
L 292.036419 -349.92 
L 292.036419 -349.92 
L 278.247775 -349.92 
L 278.247775 -349.92 
L 264.45913 -349.92 
L 264.45913 -349.92 
L 250.670486 -349.92 
L 250.670486 -349.92 
L 236.881841 -349.92 
L 236.881841 -349.92 
L 223.093197 -349.92 
L 223.093197 -349.92 
L 209.304552 -349.92 
L 209.304552 -349.92 
L 195.515908 -349.92 
L 195.515908 -349.92 
L 181.727263 -349.92 
L 181.727263 -349.92 
L 167.938619 -349.92 
L 167.938619 -349.92 
L 154.149974 -349.92 
L 154.149974 -349.92 
L 140.36133 -349.92 
L 140.36133 -349.92 
L 126.572685 -349.92 
L 126.572685 -349.92 
L 124.274578 -349.92 
L 124.274578 -349.92 
L 121.976471 -349.92 
L 121.976471 -349.92 
L 119.678363 -349.92 
L 119.678363 -349.92 
L 117.380256 -349.92 
L 117.380256 -349.92 
L 115.082148 -349.92 
L 115.082148 -349.92 
L 112.784041 -349.92 
L 112.784041 -349.92 
L 110.485934 -349.92 
L 110.485934 -349.92 
L 108.187826 -349.92 
L 108.187826 -349.92 
L 105.889719 -349.92 
L 105.889719 -349.92 
L 103.591611 -349.92 
L 103.591611 -349.92 
L 101.293504 -349.92 
L 101.293504 -349.92 
L 98.995396 -349.92 
L 98.995396 -349.92 
L 96.697289 -349.92 
L 96.697289 -349.92 
L 94.399182 -349.92 
L 94.399182 -349.92 
L 92.101074 -349.92 
L 92.101074 -349.92 
L 89.802967 -349.92 
L 89.802967 -349.92 
L 87.504859 -349.92 
L 87.504859 -349.92 
L 85.206752 -349.92 
L 85.206752 -349.92 
L 82.908645 -349.92 
L 82.908645 -349.92 
L 80.610537 -349.92 
L 80.610537 -349.92 
L 78.31243 -349.92 
L 78.31243 -349.92 
L 76.014322 -349.92 
L 76.014322 -349.92 
L 73.716215 -349.92 
L 73.716215 -349.92 
L 71.418107 -349.92 
L 71.418107 -349.92 
L 69.12 -349.92 
z
"/>
    </defs>
    <g clip-path="url(#pd5489157d7)">
     <use xlink:href="#m264a854891" x="0" y="648" style="fill: #ffc107; fill-opacity: 0.5"/>
    </g>
   </g>
   <g id="FillBetweenPolyCollection_2">
    <defs>
     <path id="mefaab2d51f" d="M 69.12 -349.92 
L 69.12 -398.152057 
L 71.418107 -398.152057 
L 71.418107 -409.811812 
L 73.716215 -409.811812 
L 73.716215 -405.153847 
L 76.014322 -405.153847 
L 76.014322 -399.203362 
L 78.31243 -399.203362 
L 78.31243 -398.686063 
L 80.610537 -398.686063 
L 80.610537 -412.22952 
L 82.908645 -412.22952 
L 82.908645 -436.620286 
L 85.206752 -436.620286 
L 85.206752 -459.608359 
L 87.504859 -459.608359 
L 87.504859 -453.591034 
L 89.802967 -453.591034 
L 89.802967 -432.996885 
L 92.101074 -432.996885 
L 92.101074 -409.123085 
L 94.399182 -409.123085 
L 94.399182 -398.422686 
L 96.697289 -398.422686 
L 96.697289 -397.663483 
L 98.995396 -397.663483 
L 98.995396 -397.29197 
L 101.293504 -397.29197 
L 101.293504 -396.800322 
L 103.591611 -396.800322 
L 103.591611 -396.293028 
L 105.889719 -396.293028 
L 105.889719 -395.76462 
L 108.187826 -395.76462 
L 108.187826 -395.261465 
L 110.485934 -395.261465 
L 110.485934 -395.082979 
L 112.784041 -395.082979 
L 112.784041 -394.726612 
L 115.082148 -394.726612 
L 115.082148 -394.262119 
L 117.380256 -394.262119 
L 117.380256 -393.704562 
L 119.678363 -393.704562 
L 119.678363 -393.731731 
L 121.976471 -393.731731 
L 121.976471 -393.804908 
L 124.274578 -393.804908 
L 124.274578 -393.066833 
L 126.572685 -393.066833 
L 126.572685 -391.464498 
L 140.36133 -391.464498 
L 140.36133 -385.89788 
L 154.149974 -385.89788 
L 154.149974 -381.811723 
L 167.938619 -381.811723 
L 167.938619 -385.644432 
L 181.727263 -385.644432 
L 181.727263 -388.452387 
L 195.515908 -388.452387 
L 195.515908 -385.745064 
L 209.304552 -385.745064 
L 209.304552 -385.351503 
L 223.093197 -385.351503 
L 223.093197 -384.508145 
L 236.881841 -384.508145 
L 236.881841 -383.906685 
L 250.670486 -383.906685 
L 250.670486 -384.276389 
L 264.45913 -384.276389 
L 264.45913 -384.778605 
L 278.247775 -384.778605 
L 278.247775 -379.984784 
L 292.036419 -379.984784 
L 292.036419 -379.762038 
L 305.825064 -379.762038 
L 305.825064 -382.005609 
L 319.613708 -382.005609 
L 319.613708 -383.4666 
L 333.402353 -383.4666 
L 333.402353 -382.035769 
L 347.190997 -382.035769 
L 347.190997 -380.679087 
L 360.979642 -380.679087 
L 360.979642 -377.954191 
L 374.768286 -377.954191 
L 374.768286 -378.481786 
L 388.556931 -378.481786 
L 388.556931 -383.499746 
L 402.345575 -383.499746 
L 402.345575 -396.15549 
L 416.13422 -396.15549 
L 416.13422 -391.091987 
L 429.922864 -391.091987 
L 429.922864 -406.561598 
L 443.711509 -406.561598 
L 443.711509 -393.832395 
L 457.500153 -393.832395 
L 457.500153 -393.314017 
L 471.288798 -393.314017 
L 471.288798 -395.051763 
L 485.077442 -395.051763 
L 485.077442 -391.25755 
L 498.866087 -391.25755 
L 498.866087 -392.441352 
L 512.654731 -392.441352 
L 512.654731 -389.967108 
L 526.443376 -389.967108 
L 526.443376 -381.566312 
L 540.23202 -381.566312 
L 540.23202 -380.907068 
L 554.020665 -380.907068 
L 554.020665 -405.892618 
L 567.809309 -405.892618 
L 567.809309 -385.444259 
L 581.597954 -385.444259 
L 581.597954 -381.567375 
L 595.386598 -381.567375 
L 595.386598 -382.011196 
L 609.175243 -382.011196 
L 609.175243 -386.143183 
L 622.963887 -386.143183 
L 622.963887 -385.414555 
L 636.752532 -385.414555 
L 636.752532 -397.621848 
L 650.541176 -397.621848 
L 650.541176 -402.277388 
L 664.329821 -402.277388 
L 664.329821 -443.28121 
L 678.118465 -443.28121 
L 678.118465 -486.698664 
L 691.90711 -486.698664 
L 691.90711 -472.436254 
L 705.695754 -472.436254 
L 705.695754 -424.098677 
L 719.484399 -424.098677 
L 719.484399 -417.648861 
L 733.273043 -417.648861 
L 733.273043 -408.493659 
L 747.061688 -408.493659 
L 747.061688 -424.17167 
L 760.850332 -424.17167 
L 760.850332 -391.438555 
L 774.638977 -391.438555 
L 774.638977 -389.872001 
L 788.427621 -389.872001 
L 788.427621 -388.737712 
L 802.216266 -388.737712 
L 802.216266 -384.743302 
L 816.00491 -384.743302 
L 816.00491 -381.811723 
L 829.793555 -381.811723 
L 829.793555 -385.644432 
L 843.582199 -385.644432 
L 843.582199 -388.452387 
L 857.370844 -388.452387 
L 857.370844 -385.745064 
L 871.159488 -385.745064 
L 871.159488 -385.351503 
L 884.948133 -385.351503 
L 884.948133 -384.508145 
L 898.736777 -384.508145 
L 898.736777 -383.906685 
L 912.525422 -383.906685 
L 912.525422 -384.276389 
L 926.314066 -384.276389 
L 926.314066 -384.778605 
L 940.102711 -384.778605 
L 940.102711 -379.984784 
L 953.891355 -379.984784 
L 953.891355 -379.762038 
L 967.68 -379.762038 
L 967.68 -379.762038 
L 967.68 -349.92 
L 967.68 -349.92 
L 967.68 -349.92 
L 953.891355 -349.92 
L 953.891355 -349.92 
L 940.102711 -349.92 
L 940.102711 -349.92 
L 926.314066 -349.92 
L 926.314066 -349.92 
L 912.525422 -349.92 
L 912.525422 -349.92 
L 898.736777 -349.92 
L 898.736777 -349.92 
L 884.948133 -349.92 
L 884.948133 -349.92 
L 871.159488 -349.92 
L 871.159488 -349.92 
L 857.370844 -349.92 
L 857.370844 -349.92 
L 843.582199 -349.92 
L 843.582199 -349.92 
L 829.793555 -349.92 
L 829.793555 -349.92 
L 816.00491 -349.92 
L 816.00491 -349.92 
L 802.216266 -349.92 
L 802.216266 -349.92 
L 788.427621 -349.92 
L 788.427621 -349.92 
L 774.638977 -349.92 
L 774.638977 -349.92 
L 760.850332 -349.92 
L 760.850332 -349.92 
L 747.061688 -349.92 
L 747.061688 -349.92 
L 733.273043 -349.92 
L 733.273043 -349.92 
L 719.484399 -349.92 
L 719.484399 -349.92 
L 705.695754 -349.92 
L 705.695754 -349.92 
L 691.90711 -349.92 
L 691.90711 -349.92 
L 678.118465 -349.92 
L 678.118465 -349.92 
L 664.329821 -349.92 
L 664.329821 -349.92 
L 650.541176 -349.92 
L 650.541176 -349.92 
L 636.752532 -349.92 
L 636.752532 -349.92 
L 622.963887 -349.92 
L 622.963887 -349.92 
L 609.175243 -349.92 
L 609.175243 -349.92 
L 595.386598 -349.92 
L 595.386598 -349.92 
L 581.597954 -349.92 
L 581.597954 -349.92 
L 567.809309 -349.92 
L 567.809309 -349.92 
L 554.020665 -349.92 
L 554.020665 -349.92 
L 540.23202 -349.92 
L 540.23202 -349.92 
L 526.443376 -349.92 
L 526.443376 -349.92 
L 512.654731 -349.92 
L 512.654731 -349.92 
L 498.866087 -349.92 
L 498.866087 -349.92 
L 485.077442 -349.92 
L 485.077442 -349.92 
L 471.288798 -349.92 
L 471.288798 -349.92 
L 457.500153 -349.92 
L 457.500153 -349.92 
L 443.711509 -349.92 
L 443.711509 -349.92 
L 429.922864 -349.92 
L 429.922864 -349.92 
L 416.13422 -349.92 
L 416.13422 -349.92 
L 402.345575 -349.92 
L 402.345575 -349.92 
L 388.556931 -349.92 
L 388.556931 -349.92 
L 374.768286 -349.92 
L 374.768286 -349.92 
L 360.979642 -349.92 
L 360.979642 -349.92 
L 347.190997 -349.92 
L 347.190997 -349.92 
L 333.402353 -349.92 
L 333.402353 -349.92 
L 319.613708 -349.92 
L 319.613708 -349.92 
L 305.825064 -349.92 
L 305.825064 -349.92 
L 292.036419 -349.92 
L 292.036419 -349.92 
L 278.247775 -349.92 
L 278.247775 -349.92 
L 264.45913 -349.92 
L 264.45913 -349.92 
L 250.670486 -349.92 
L 250.670486 -349.92 
L 236.881841 -349.92 
L 236.881841 -349.92 
L 223.093197 -349.92 
L 223.093197 -349.92 
L 209.304552 -349.92 
L 209.304552 -349.92 
L 195.515908 -349.92 
L 195.515908 -349.92 
L 181.727263 -349.92 
L 181.727263 -349.92 
L 167.938619 -349.92 
L 167.938619 -349.92 
L 154.149974 -349.92 
L 154.149974 -349.92 
L 140.36133 -349.92 
L 140.36133 -349.92 
L 126.572685 -349.92 
L 126.572685 -349.92 
L 124.274578 -349.92 
L 124.274578 -349.92 
L 121.976471 -349.92 
L 121.976471 -349.92 
L 119.678363 -349.92 
L 119.678363 -349.92 
L 117.380256 -349.92 
L 117.380256 -349.92 
L 115.082148 -349.92 
L 115.082148 -349.92 
L 112.784041 -349.92 
L 112.784041 -349.92 
L 110.485934 -349.92 
L 110.485934 -349.92 
L 108.187826 -349.92 
L 108.187826 -349.92 
L 105.889719 -349.92 
L 105.889719 -349.92 
L 103.591611 -349.92 
L 103.591611 -349.92 
L 101.293504 -349.92 
L 101.293504 -349.92 
L 98.995396 -349.92 
L 98.995396 -349.92 
L 96.697289 -349.92 
L 96.697289 -349.92 
L 94.399182 -349.92 
L 94.399182 -349.92 
L 92.101074 -349.92 
L 92.101074 -349.92 
L 89.802967 -349.92 
L 89.802967 -349.92 
L 87.504859 -349.92 
L 87.504859 -349.92 
L 85.206752 -349.92 
L 85.206752 -349.92 
L 82.908645 -349.92 
L 82.908645 -349.92 
L 80.610537 -349.92 
L 80.610537 -349.92 
L 78.31243 -349.92 
L 78.31243 -349.92 
L 76.014322 -349.92 
L 76.014322 -349.92 
L 73.716215 -349.92 
L 73.716215 -349.92 
L 71.418107 -349.92 
L 71.418107 -349.92 
L 69.12 -349.92 
z
"/>
    </defs>
    <g clip-path="url(#pd5489157d7)">
     <use xlink:href="#mefaab2d51f" x="0" y="648" style="fill: #9c27b0; fill-opacity: 0.4"/>
    </g>
   </g>
   <g id="FillBetweenPolyCollection_3">
    <defs>
     <path id="m0e0c72f2ff" d="M 69.12 -349.92 
L 69.12 -349.92 
L 71.418107 -349.92 
L 71.418107 -349.92 
L 73.716215 -349.92 
L 73.716215 -349.92 
L 76.014322 -349.92 
L 76.014322 -349.92 
L 78.31243 -349.92 
L 78.31243 -349.92 
L 80.610537 -349.92 
L 80.610537 -349.92 
L 82.908645 -349.92 
L 82.908645 -349.92 
L 85.206752 -349.92 
L 85.206752 -349.92 
L 87.504859 -349.92 
L 87.504859 -349.92 
L 89.802967 -349.92 
L 89.802967 -349.92 
L 92.101074 -349.92 
L 92.101074 -349.92 
L 94.399182 -349.92 
L 94.399182 -349.92 
L 96.697289 -349.92 
L 96.697289 -349.92 
L 98.995396 -349.92 
L 98.995396 -349.92 
L 101.293504 -349.92 
L 101.293504 -349.92 
L 103.591611 -349.92 
L 103.591611 -349.92 
L 105.889719 -349.92 
L 105.889719 -349.92 
L 108.187826 -349.92 
L 108.187826 -349.92 
L 110.485934 -349.92 
L 110.485934 -349.92 
L 112.784041 -349.92 
L 112.784041 -349.92 
L 115.082148 -349.92 
L 115.082148 -349.92 
L 117.380256 -349.92 
L 117.380256 -349.92 
L 119.678363 -349.92 
L 119.678363 -349.92 
L 121.976471 -349.92 
L 121.976471 -349.92 
L 124.274578 -349.92 
L 124.274578 -349.92 
L 126.572685 -349.92 
L 126.572685 -349.92 
L 140.36133 -349.92 
L 140.36133 -349.92 
L 154.149974 -349.92 
L 154.149974 -349.92 
L 167.938619 -349.92 
L 167.938619 -349.92 
L 181.727263 -349.92 
L 181.727263 -349.92 
L 195.515908 -349.92 
L 195.515908 -349.92 
L 209.304552 -349.92 
L 209.304552 -349.92 
L 223.093197 -349.92 
L 223.093197 -349.92 
L 236.881841 -349.92 
L 236.881841 -349.92 
L 250.670486 -349.92 
L 250.670486 -349.92 
L 264.45913 -349.92 
L 264.45913 -349.92 
L 278.247775 -349.92 
L 278.247775 -349.92 
L 292.036419 -349.92 
L 292.036419 -349.92 
L 305.825064 -349.92 
L 305.825064 -349.92 
L 319.613708 -349.92 
L 319.613708 -349.92 
L 333.402353 -349.92 
L 333.402353 -349.92 
L 347.190997 -349.92 
L 347.190997 -349.92 
L 360.979642 -349.92 
L 360.979642 -349.92 
L 374.768286 -349.92 
L 374.768286 -349.92 
L 388.556931 -349.92 
L 388.556931 -349.92 
L 402.345575 -349.92 
L 402.345575 -349.92 
L 416.13422 -349.92 
L 416.13422 -349.92 
L 429.922864 -349.92 
L 429.922864 -349.92 
L 443.711509 -349.92 
L 443.711509 -349.92 
L 457.500153 -349.92 
L 457.500153 -349.92 
L 471.288798 -349.92 
L 471.288798 -349.92 
L 485.077442 -349.92 
L 485.077442 -349.92 
L 498.866087 -349.92 
L 498.866087 -349.92 
L 512.654731 -349.92 
L 512.654731 -349.92 
L 526.443376 -349.92 
L 526.443376 -349.92 
L 540.23202 -349.92 
L 540.23202 -349.92 
L 554.020665 -349.92 
L 554.020665 -349.92 
L 567.809309 -349.92 
L 567.809309 -349.92 
L 581.597954 -349.92 
L 581.597954 -349.92 
L 595.386598 -349.92 
L 595.386598 -349.92 
L 609.175243 -349.92 
L 609.175243 -349.92 
L 622.963887 -349.92 
L 622.963887 -349.92 
L 636.752532 -349.92 
L 636.752532 -349.92 
L 650.541176 -349.92 
L 650.541176 -349.92 
L 664.329821 -349.92 
L 664.329821 -349.92 
L 678.118465 -349.92 
L 678.118465 -349.92 
L 691.90711 -349.92 
L 691.90711 -349.92 
L 705.695754 -349.92 
L 705.695754 -349.92 
L 719.484399 -349.92 
L 719.484399 -349.92 
L 733.273043 -349.92 
L 733.273043 -349.92 
L 747.061688 -349.92 
L 747.061688 -349.92 
L 760.850332 -349.92 
L 760.850332 -349.92 
L 774.638977 -349.92 
L 774.638977 -349.92 
L 788.427621 -349.92 
L 788.427621 -349.92 
L 802.216266 -349.92 
L 802.216266 -349.92 
L 816.00491 -349.92 
L 816.00491 -349.92 
L 829.793555 -349.92 
L 829.793555 -349.92 
L 843.582199 -349.92 
L 843.582199 -349.92 
L 857.370844 -349.92 
L 857.370844 -349.92 
L 871.159488 -349.92 
L 871.159488 -349.92 
L 884.948133 -349.92 
L 884.948133 -349.92 
L 898.736777 -349.92 
L 898.736777 -349.92 
L 912.525422 -349.92 
L 912.525422 -349.92 
L 926.314066 -349.92 
L 926.314066 -349.92 
L 940.102711 -349.92 
L 940.102711 -349.92 
L 953.891355 -349.92 
L 953.891355 -349.92 
L 967.68 -349.92 
L 967.68 -349.92 
L 967.68 -349.92 
L 967.68 -349.92 
L 967.68 -349.92 
L 953.891355 -349.92 
L 953.891355 -349.92 
L 940.102711 -349.92 
L 940.102711 -349.92 
L 926.314066 -349.92 
L 926.314066 -349.92 
L 912.525422 -349.92 
L 912.525422 -349.92 
L 898.736777 -349.92 
L 898.736777 -349.92 
L 884.948133 -349.92 
L 884.948133 -349.92 
L 871.159488 -349.92 
L 871.159488 -349.92 
L 857.370844 -349.92 
L 857.370844 -349.92 
L 843.582199 -349.92 
L 843.582199 -349.92 
L 829.793555 -349.92 
L 829.793555 -349.92 
L 816.00491 -349.92 
L 816.00491 -349.92 
L 802.216266 -349.92 
L 802.216266 -349.92 
L 788.427621 -349.92 
L 788.427621 -349.92 
L 774.638977 -349.92 
L 774.638977 -349.92 
L 760.850332 -349.92 
L 760.850332 -349.92 
L 747.061688 -349.92 
L 747.061688 -349.92 
L 733.273043 -349.92 
L 733.273043 -349.92 
L 719.484399 -349.92 
L 719.484399 -349.92 
L 705.695754 -349.92 
L 705.695754 -349.92 
L 691.90711 -349.92 
L 691.90711 -349.92 
L 678.118465 -349.92 
L 678.118465 -349.92 
L 664.329821 -349.92 
L 664.329821 -349.92 
L 650.541176 -349.92 
L 650.541176 -349.92 
L 636.752532 -349.92 
L 636.752532 -349.92 
L 622.963887 -349.92 
L 622.963887 -349.92 
L 609.175243 -349.92 
L 609.175243 -349.92 
L 595.386598 -349.92 
L 595.386598 -349.92 
L 581.597954 -349.92 
L 581.597954 -349.92 
L 567.809309 -349.92 
L 567.809309 -349.92 
L 554.020665 -349.92 
L 554.020665 -349.92 
L 540.23202 -349.92 
L 540.23202 -349.92 
L 526.443376 -349.92 
L 526.443376 -349.92 
L 512.654731 -349.92 
L 512.654731 -349.92 
L 498.866087 -349.92 
L 498.866087 -349.92 
L 485.077442 -349.92 
L 485.077442 -349.92 
L 471.288798 -349.92 
L 471.288798 -349.92 
L 457.500153 -349.92 
L 457.500153 -349.92 
L 443.711509 -349.92 
L 443.711509 -349.92 
L 429.922864 -349.92 
L 429.922864 -349.92 
L 416.13422 -349.92 
L 416.13422 -349.92 
L 402.345575 -349.92 
L 402.345575 -349.92 
L 388.556931 -349.92 
L 388.556931 -349.92 
L 374.768286 -349.92 
L 374.768286 -349.92 
L 360.979642 -349.92 
L 360.979642 -349.92 
L 347.190997 -349.92 
L 347.190997 -349.92 
L 333.402353 -349.92 
L 333.402353 -349.92 
L 319.613708 -349.92 
L 319.613708 -349.92 
L 305.825064 -349.92 
L 305.825064 -349.92 
L 292.036419 -349.92 
L 292.036419 -349.92 
L 278.247775 -349.92 
L 278.247775 -349.92 
L 264.45913 -349.92 
L 264.45913 -349.92 
L 250.670486 -349.92 
L 250.670486 -349.92 
L 236.881841 -349.92 
L 236.881841 -349.92 
L 223.093197 -349.92 
L 223.093197 -349.92 
L 209.304552 -349.92 
L 209.304552 -349.92 
L 195.515908 -349.92 
L 195.515908 -349.92 
L 181.727263 -349.92 
L 181.727263 -349.92 
L 167.938619 -349.92 
L 167.938619 -349.92 
L 154.149974 -349.92 
L 154.149974 -349.92 
L 140.36133 -349.92 
L 140.36133 -349.92 
L 126.572685 -349.92 
L 126.572685 -349.92 
L 124.274578 -349.92 
L 124.274578 -349.92 
L 121.976471 -349.92 
L 121.976471 -349.92 
L 119.678363 -349.92 
L 119.678363 -349.92 
L 117.380256 -349.92 
L 117.380256 -349.92 
L 115.082148 -349.92 
L 115.082148 -349.92 
L 112.784041 -349.92 
L 112.784041 -349.92 
L 110.485934 -349.92 
L 110.485934 -349.92 
L 108.187826 -349.92 
L 108.187826 -349.92 
L 105.889719 -349.92 
L 105.889719 -349.92 
L 103.591611 -349.92 
L 103.591611 -349.92 
L 101.293504 -349.92 
L 101.293504 -349.92 
L 98.995396 -349.92 
L 98.995396 -349.92 
L 96.697289 -349.92 
L 96.697289 -349.92 
L 94.399182 -349.92 
L 94.399182 -349.92 
L 92.101074 -349.92 
L 92.101074 -349.92 
L 89.802967 -349.92 
L 89.802967 -349.92 
L 87.504859 -349.92 
L 87.504859 -349.92 
L 85.206752 -349.92 
L 85.206752 -349.92 
L 82.908645 -349.92 
L 82.908645 -349.92 
L 80.610537 -349.92 
L 80.610537 -349.92 
L 78.31243 -349.92 
L 78.31243 -349.92 
L 76.014322 -349.92 
L 76.014322 -349.92 
L 73.716215 -349.92 
L 73.716215 -349.92 
L 71.418107 -349.92 
L 71.418107 -349.92 
L 69.12 -349.92 
z
"/>
    </defs>
    <g clip-path="url(#pd5489157d7)">
     <use xlink:href="#m0e0c72f2ff" x="0" y="648" style="fill: #2196f3; fill-opacity: 0.4"/>
    </g>
   </g>
   <g id="FillBetweenPolyCollection_4">
    <defs>
     <path id="m726f850be0" d="M 69.12 -349.92 
L 69.12 -349.92 
L 71.418107 -349.92 
L 71.418107 -349.92 
L 73.716215 -349.92 
L 73.716215 -349.92 
L 76.014322 -349.92 
L 76.014322 -349.92 
L 78.31243 -349.92 
L 78.31243 -349.92 
L 80.610537 -349.92 
L 80.610537 -349.92 
L 82.908645 -349.92 
L 82.908645 -349.92 
L 85.206752 -349.92 
L 85.206752 -349.92 
L 87.504859 -349.92 
L 87.504859 -349.92 
L 89.802967 -349.92 
L 89.802967 -349.92 
L 92.101074 -349.92 
L 92.101074 -349.92 
L 94.399182 -349.92 
L 94.399182 -349.92 
L 96.697289 -349.92 
L 96.697289 -349.92 
L 98.995396 -349.92 
L 98.995396 -349.92 
L 101.293504 -349.92 
L 101.293504 -349.92 
L 103.591611 -349.92 
L 103.591611 -349.92 
L 105.889719 -349.92 
L 105.889719 -349.92 
L 108.187826 -349.92 
L 108.187826 -349.92 
L 110.485934 -349.92 
L 110.485934 -349.92 
L 112.784041 -349.92 
L 112.784041 -349.92 
L 115.082148 -349.92 
L 115.082148 -349.92 
L 117.380256 -349.92 
L 117.380256 -349.92 
L 119.678363 -349.92 
L 119.678363 -349.92 
L 121.976471 -349.92 
L 121.976471 -349.92 
L 124.274578 -349.92 
L 124.274578 -349.92 
L 126.572685 -349.92 
L 126.572685 -349.92 
L 140.36133 -349.92 
L 140.36133 -349.92 
L 154.149974 -349.92 
L 154.149974 -349.92 
L 167.938619 -349.92 
L 167.938619 -349.92 
L 181.727263 -349.92 
L 181.727263 -349.92 
L 195.515908 -349.92 
L 195.515908 -349.92 
L 209.304552 -349.92 
L 209.304552 -349.92 
L 223.093197 -349.92 
L 223.093197 -349.92 
L 236.881841 -349.92 
L 236.881841 -349.92 
L 250.670486 -349.92 
L 250.670486 -349.92 
L 264.45913 -349.92 
L 264.45913 -349.92 
L 278.247775 -349.92 
L 278.247775 -349.92 
L 292.036419 -349.92 
L 292.036419 -349.92 
L 305.825064 -349.92 
L 305.825064 -349.92 
L 319.613708 -349.92 
L 319.613708 -349.92 
L 333.402353 -349.92 
L 333.402353 -349.92 
L 347.190997 -349.92 
L 347.190997 -349.92 
L 360.979642 -349.92 
L 360.979642 -349.92 
L 374.768286 -349.92 
L 374.768286 -329.753756 
L 388.556931 -329.753756 
L 388.556931 -313.501692 
L 402.345575 -313.501692 
L 402.345575 -305.434057 
L 416.13422 -305.434057 
L 416.13422 -281.422983 
L 429.922864 -281.422983 
L 429.922864 -276.984688 
L 443.711509 -276.984688 
L 443.711509 -246.51472 
L 457.500153 -246.51472 
L 457.500153 -228.241949 
L 471.288798 -228.241949 
L 471.288798 -216.766219 
L 485.077442 -216.766219 
L 485.077442 -203.572395 
L 498.866087 -203.572395 
L 498.866087 -194.941877 
L 512.654731 -194.941877 
L 512.654731 -182.880433 
L 526.443376 -182.880433 
L 526.443376 -170.395185 
L 540.23202 -170.395185 
L 540.23202 -166.695895 
L 554.020665 -166.695895 
L 554.020665 -191.001446 
L 567.809309 -191.001446 
L 567.809309 -174.217409 
L 581.597954 -174.217409 
L 581.597954 -176.033714 
L 595.386598 -176.033714 
L 595.386598 -184.657391 
L 609.175243 -184.657391 
L 609.175243 -204.207567 
L 622.963887 -204.207567 
L 622.963887 -224.097868 
L 636.752532 -224.097868 
L 636.752532 -257.183713 
L 650.541176 -257.183713 
L 650.541176 -284.278171 
L 664.329821 -284.278171 
L 664.329821 -349.92 
L 678.118465 -349.92 
L 678.118465 -349.92 
L 691.90711 -349.92 
L 691.90711 -349.92 
L 705.695754 -349.92 
L 705.695754 -349.92 
L 719.484399 -349.92 
L 719.484399 -349.92 
L 733.273043 -349.92 
L 733.273043 -349.92 
L 747.061688 -349.92 
L 747.061688 -349.92 
L 760.850332 -349.92 
L 760.850332 -349.92 
L 774.638977 -349.92 
L 774.638977 -349.92 
L 788.427621 -349.92 
L 788.427621 -349.92 
L 802.216266 -349.92 
L 802.216266 -349.92 
L 816.00491 -349.92 
L 816.00491 -349.92 
L 829.793555 -349.92 
L 829.793555 -349.92 
L 843.582199 -349.92 
L 843.582199 -349.92 
L 857.370844 -349.92 
L 857.370844 -349.92 
L 871.159488 -349.92 
L 871.159488 -349.92 
L 884.948133 -349.92 
L 884.948133 -349.92 
L 898.736777 -349.92 
L 898.736777 -349.92 
L 912.525422 -349.92 
L 912.525422 -349.92 
L 926.314066 -349.92 
L 926.314066 -349.92 
L 940.102711 -349.92 
L 940.102711 -349.92 
L 953.891355 -349.92 
L 953.891355 -349.92 
L 967.68 -349.92 
L 967.68 -349.92 
L 967.68 -349.92 
L 967.68 -349.92 
L 967.68 -349.92 
L 953.891355 -349.92 
L 953.891355 -349.92 
L 940.102711 -349.92 
L 940.102711 -349.92 
L 926.314066 -349.92 
L 926.314066 -349.92 
L 912.525422 -349.92 
L 912.525422 -349.92 
L 898.736777 -349.92 
L 898.736777 -349.92 
L 884.948133 -349.92 
L 884.948133 -349.92 
L 871.159488 -349.92 
L 871.159488 -349.92 
L 857.370844 -349.92 
L 857.370844 -349.92 
L 843.582199 -349.92 
L 843.582199 -349.92 
L 829.793555 -349.92 
L 829.793555 -349.92 
L 816.00491 -349.92 
L 816.00491 -349.92 
L 802.216266 -349.92 
L 802.216266 -349.92 
L 788.427621 -349.92 
L 788.427621 -349.92 
L 774.638977 -349.92 
L 774.638977 -349.92 
L 760.850332 -349.92 
L 760.850332 -349.92 
L 747.061688 -349.92 
L 747.061688 -349.92 
L 733.273043 -349.92 
L 733.273043 -349.92 
L 719.484399 -349.92 
L 719.484399 -349.92 
L 705.695754 -349.92 
L 705.695754 -349.92 
L 691.90711 -349.92 
L 691.90711 -349.92 
L 678.118465 -349.92 
L 678.118465 -349.92 
L 664.329821 -349.92 
L 664.329821 -349.92 
L 650.541176 -349.92 
L 650.541176 -349.92 
L 636.752532 -349.92 
L 636.752532 -349.92 
L 622.963887 -349.92 
L 622.963887 -349.92 
L 609.175243 -349.92 
L 609.175243 -349.92 
L 595.386598 -349.92 
L 595.386598 -349.92 
L 581.597954 -349.92 
L 581.597954 -349.92 
L 567.809309 -349.92 
L 567.809309 -349.92 
L 554.020665 -349.92 
L 554.020665 -349.92 
L 540.23202 -349.92 
L 540.23202 -349.92 
L 526.443376 -349.92 
L 526.443376 -349.92 
L 512.654731 -349.92 
L 512.654731 -349.92 
L 498.866087 -349.92 
L 498.866087 -349.92 
L 485.077442 -349.92 
L 485.077442 -349.92 
L 471.288798 -349.92 
L 471.288798 -349.92 
L 457.500153 -349.92 
L 457.500153 -349.92 
L 443.711509 -349.92 
L 443.711509 -349.92 
L 429.922864 -349.92 
L 429.922864 -349.92 
L 416.13422 -349.92 
L 416.13422 -349.92 
L 402.345575 -349.92 
L 402.345575 -349.92 
L 388.556931 -349.92 
L 388.556931 -349.92 
L 374.768286 -349.92 
L 374.768286 -349.92 
L 360.979642 -349.92 
L 360.979642 -349.92 
L 347.190997 -349.92 
L 347.190997 -349.92 
L 333.402353 -349.92 
L 333.402353 -349.92 
L 319.613708 -349.92 
L 319.613708 -349.92 
L 305.825064 -349.92 
L 305.825064 -349.92 
L 292.036419 -349.92 
L 292.036419 -349.92 
L 278.247775 -349.92 
L 278.247775 -349.92 
L 264.45913 -349.92 
L 264.45913 -349.92 
L 250.670486 -349.92 
L 250.670486 -349.92 
L 236.881841 -349.92 
L 236.881841 -349.92 
L 223.093197 -349.92 
L 223.093197 -349.92 
L 209.304552 -349.92 
L 209.304552 -349.92 
L 195.515908 -349.92 
L 195.515908 -349.92 
L 181.727263 -349.92 
L 181.727263 -349.92 
L 167.938619 -349.92 
L 167.938619 -349.92 
L 154.149974 -349.92 
L 154.149974 -349.92 
L 140.36133 -349.92 
L 140.36133 -349.92 
L 126.572685 -349.92 
L 126.572685 -349.92 
L 124.274578 -349.92 
L 124.274578 -349.92 
L 121.976471 -349.92 
L 121.976471 -349.92 
L 119.678363 -349.92 
L 119.678363 -349.92 
L 117.380256 -349.92 
L 117.380256 -349.92 
L 115.082148 -349.92 
L 115.082148 -349.92 
L 112.784041 -349.92 
L 112.784041 -349.92 
L 110.485934 -349.92 
L 110.485934 -349.92 
L 108.187826 -349.92 
L 108.187826 -349.92 
L 105.889719 -349.92 
L 105.889719 -349.92 
L 103.591611 -349.92 
L 103.591611 -349.92 
L 101.293504 -349.92 
L 101.293504 -349.92 
L 98.995396 -349.92 
L 98.995396 -349.92 
L 96.697289 -349.92 
L 96.697289 -349.92 
L 94.399182 -349.92 
L 94.399182 -349.92 
L 92.101074 -349.92 
L 92.101074 -349.92 
L 89.802967 -349.92 
L 89.802967 -349.92 
L 87.504859 -349.92 
L 87.504859 -349.92 
L 85.206752 -349.92 
L 85.206752 -349.92 
L 82.908645 -349.92 
L 82.908645 -349.92 
L 80.610537 -349.92 
L 80.610537 -349.92 
L 78.31243 -349.92 
L 78.31243 -349.92 
L 76.014322 -349.92 
L 76.014322 -349.92 
L 73.716215 -349.92 
L 73.716215 -349.92 
L 71.418107 -349.92 
L 71.418107 -349.92 
L 69.12 -349.92 
z
"/>
    </defs>
    <g clip-path="url(#pd5489157d7)">
     <use xlink:href="#m726f850be0" x="0" y="648" style="fill: #009688; fill-opacity: 0.4"/>
    </g>
   </g>
   <g id="FillBetweenPolyCollection_5">
    <defs>
     <path id="mfabf604714" d="M 69.12 -349.92 
L 69.12 -399.39963 
L 71.418107 -399.39963 
L 71.418107 -412.964011 
L 73.716215 -412.964011 
L 73.716215 -408.060891 
L 76.014322 -408.060891 
L 76.014322 -401.797223 
L 78.31243 -401.797223 
L 78.31243 -401.252698 
L 80.610537 -401.252698 
L 80.610537 -415.508966 
L 82.908645 -415.508966 
L 82.908645 -441.183457 
L 85.206752 -441.183457 
L 85.206752 -465.381432 
L 87.504859 -465.381432 
L 87.504859 -459.047403 
L 89.802967 -459.047403 
L 89.802967 -437.369354 
L 92.101074 -437.369354 
L 92.101074 -412.239036 
L 94.399182 -412.239036 
L 94.399182 -400.975459 
L 96.697289 -400.975459 
L 96.697289 -400.176298 
L 98.995396 -400.176298 
L 98.995396 -399.785232 
L 101.293504 -399.785232 
L 101.293504 -399.267707 
L 103.591611 -399.267707 
L 103.591611 -398.733714 
L 105.889719 -398.733714 
L 105.889719 -398.177495 
L 108.187826 -398.177495 
L 108.187826 -397.647857 
L 110.485934 -397.647857 
L 110.485934 -397.459978 
L 112.784041 -397.459978 
L 112.784041 -397.084855 
L 115.082148 -397.084855 
L 115.082148 -396.595915 
L 117.380256 -396.595915 
L 117.380256 -396.009013 
L 119.678363 -396.009013 
L 119.678363 -396.037612 
L 121.976471 -396.037612 
L 121.976471 -396.11464 
L 124.274578 -396.11464 
L 124.274578 -395.337719 
L 126.572685 -395.337719 
L 126.572685 -393.65105 
L 140.36133 -393.65105 
L 140.36133 -387.791453 
L 154.149974 -387.791453 
L 154.149974 -383.490235 
L 167.938619 -383.490235 
L 167.938619 -387.524665 
L 181.727263 -387.524665 
L 181.727263 -390.480408 
L 195.515908 -390.480408 
L 195.515908 -387.630594 
L 209.304552 -387.630594 
L 209.304552 -387.216319 
L 223.093197 -387.216319 
L 223.093197 -386.328574 
L 236.881841 -386.328574 
L 236.881841 -385.695458 
L 250.670486 -385.695458 
L 250.670486 -386.08462 
L 264.45913 -386.08462 
L 264.45913 -386.613269 
L 278.247775 -386.613269 
L 278.247775 -381.567141 
L 292.036419 -381.567141 
L 292.036419 -381.332672 
L 305.825064 -381.332672 
L 305.825064 -383.694325 
L 319.613708 -383.694325 
L 319.613708 -385.232211 
L 333.402353 -385.232211 
L 333.402353 -382.458387 
L 347.190997 -382.458387 
L 347.190997 -374.710247 
L 360.979642 -374.710247 
L 360.979642 -350.652606 
L 374.768286 -350.652606 
L 374.768286 -349.92 
L 388.556931 -349.92 
L 388.556931 -349.92 
L 402.345575 -349.92 
L 402.345575 -349.92 
L 416.13422 -349.92 
L 416.13422 -349.92 
L 429.922864 -349.92 
L 429.922864 -349.92 
L 443.711509 -349.92 
L 443.711509 -349.92 
L 457.500153 -349.92 
L 457.500153 -349.92 
L 471.288798 -349.92 
L 471.288798 -349.92 
L 485.077442 -349.92 
L 485.077442 -349.92 
L 498.866087 -349.92 
L 498.866087 -349.92 
L 512.654731 -349.92 
L 512.654731 -349.92 
L 526.443376 -349.92 
L 526.443376 -349.92 
L 540.23202 -349.92 
L 540.23202 -349.92 
L 554.020665 -349.92 
L 554.020665 -349.92 
L 567.809309 -349.92 
L 567.809309 -349.92 
L 581.597954 -349.92 
L 581.597954 -349.92 
L 595.386598 -349.92 
L 595.386598 -349.92 
L 609.175243 -349.92 
L 609.175243 -349.92 
L 622.963887 -349.92 
L 622.963887 -349.92 
L 636.752532 -349.92 
L 636.752532 -349.92 
L 650.541176 -349.92 
L 650.541176 -349.92 
L 664.329821 -349.92 
L 664.329821 -352.561269 
L 678.118465 -352.561269 
L 678.118465 -433.575318 
L 691.90711 -433.575318 
L 691.90711 -457.12561 
L 705.695754 -457.12561 
L 705.695754 -423.458749 
L 719.484399 -423.458749 
L 719.484399 -421.213537 
L 733.273043 -421.213537 
L 733.273043 -411.576483 
L 747.061688 -411.576483 
L 747.061688 -428.079652 
L 760.850332 -428.079652 
L 760.850332 -393.623742 
L 774.638977 -393.623742 
L 774.638977 -391.974738 
L 788.427621 -391.974738 
L 788.427621 -390.78075 
L 802.216266 -390.78075 
L 802.216266 -386.576107 
L 816.00491 -386.576107 
L 816.00491 -383.490235 
L 829.793555 -383.490235 
L 829.793555 -387.524665 
L 843.582199 -387.524665 
L 843.582199 -390.480408 
L 857.370844 -390.480408 
L 857.370844 -387.630594 
L 871.159488 -387.630594 
L 871.159488 -387.216319 
L 884.948133 -387.216319 
L 884.948133 -386.328574 
L 898.736777 -386.328574 
L 898.736777 -385.695458 
L 912.525422 -385.695458 
L 912.525422 -386.08462 
L 926.314066 -386.08462 
L 926.314066 -386.613269 
L 940.102711 -386.613269 
L 940.102711 -381.567141 
L 953.891355 -381.567141 
L 953.891355 -381.332672 
L 967.68 -381.332672 
L 967.68 -381.332672 
L 967.68 -349.92 
L 967.68 -349.92 
L 967.68 -349.92 
L 953.891355 -349.92 
L 953.891355 -349.92 
L 940.102711 -349.92 
L 940.102711 -349.92 
L 926.314066 -349.92 
L 926.314066 -349.92 
L 912.525422 -349.92 
L 912.525422 -349.92 
L 898.736777 -349.92 
L 898.736777 -349.92 
L 884.948133 -349.92 
L 884.948133 -349.92 
L 871.159488 -349.92 
L 871.159488 -349.92 
L 857.370844 -349.92 
L 857.370844 -349.92 
L 843.582199 -349.92 
L 843.582199 -349.92 
L 829.793555 -349.92 
L 829.793555 -349.92 
L 816.00491 -349.92 
L 816.00491 -349.92 
L 802.216266 -349.92 
L 802.216266 -349.92 
L 788.427621 -349.92 
L 788.427621 -349.92 
L 774.638977 -349.92 
L 774.638977 -349.92 
L 760.850332 -349.92 
L 760.850332 -349.92 
L 747.061688 -349.92 
L 747.061688 -349.92 
L 733.273043 -349.92 
L 733.273043 -349.92 
L 719.484399 -349.92 
L 719.484399 -349.92 
L 705.695754 -349.92 
L 705.695754 -349.92 
L 691.90711 -349.92 
L 691.90711 -349.92 
L 678.118465 -349.92 
L 678.118465 -349.92 
L 664.329821 -349.92 
L 664.329821 -349.92 
L 650.541176 -349.92 
L 650.541176 -349.92 
L 636.752532 -349.92 
L 636.752532 -349.92 
L 622.963887 -349.92 
L 622.963887 -349.92 
L 609.175243 -349.92 
L 609.175243 -349.92 
L 595.386598 -349.92 
L 595.386598 -349.92 
L 581.597954 -349.92 
L 581.597954 -349.92 
L 567.809309 -349.92 
L 567.809309 -349.92 
L 554.020665 -349.92 
L 554.020665 -349.92 
L 540.23202 -349.92 
L 540.23202 -349.92 
L 526.443376 -349.92 
L 526.443376 -349.92 
L 512.654731 -349.92 
L 512.654731 -349.92 
L 498.866087 -349.92 
L 498.866087 -349.92 
L 485.077442 -349.92 
L 485.077442 -349.92 
L 471.288798 -349.92 
L 471.288798 -349.92 
L 457.500153 -349.92 
L 457.500153 -349.92 
L 443.711509 -349.92 
L 443.711509 -349.92 
L 429.922864 -349.92 
L 429.922864 -349.92 
L 416.13422 -349.92 
L 416.13422 -349.92 
L 402.345575 -349.92 
L 402.345575 -349.92 
L 388.556931 -349.92 
L 388.556931 -349.92 
L 374.768286 -349.92 
L 374.768286 -349.92 
L 360.979642 -349.92 
L 360.979642 -349.92 
L 347.190997 -349.92 
L 347.190997 -349.92 
L 333.402353 -349.92 
L 333.402353 -349.92 
L 319.613708 -349.92 
L 319.613708 -349.92 
L 305.825064 -349.92 
L 305.825064 -349.92 
L 292.036419 -349.92 
L 292.036419 -349.92 
L 278.247775 -349.92 
L 278.247775 -349.92 
L 264.45913 -349.92 
L 264.45913 -349.92 
L 250.670486 -349.92 
L 250.670486 -349.92 
L 236.881841 -349.92 
L 236.881841 -349.92 
L 223.093197 -349.92 
L 223.093197 -349.92 
L 209.304552 -349.92 
L 209.304552 -349.92 
L 195.515908 -349.92 
L 195.515908 -349.92 
L 181.727263 -349.92 
L 181.727263 -349.92 
L 167.938619 -349.92 
L 167.938619 -349.92 
L 154.149974 -349.92 
L 154.149974 -349.92 
L 140.36133 -349.92 
L 140.36133 -349.92 
L 126.572685 -349.92 
L 126.572685 -349.92 
L 124.274578 -349.92 
L 124.274578 -349.92 
L 121.976471 -349.92 
L 121.976471 -349.92 
L 119.678363 -349.92 
L 119.678363 -349.92 
L 117.380256 -349.92 
L 117.380256 -349.92 
L 115.082148 -349.92 
L 115.082148 -349.92 
L 112.784041 -349.92 
L 112.784041 -349.92 
L 110.485934 -349.92 
L 110.485934 -349.92 
L 108.187826 -349.92 
L 108.187826 -349.92 
L 105.889719 -349.92 
L 105.889719 -349.92 
L 103.591611 -349.92 
L 103.591611 -349.92 
L 101.293504 -349.92 
L 101.293504 -349.92 
L 98.995396 -349.92 
L 98.995396 -349.92 
L 96.697289 -349.92 
L 96.697289 -349.92 
L 94.399182 -349.92 
L 94.399182 -349.92 
L 92.101074 -349.92 
L 92.101074 -349.92 
L 89.802967 -349.92 
L 89.802967 -349.92 
L 87.504859 -349.92 
L 87.504859 -349.92 
L 85.206752 -349.92 
L 85.206752 -349.92 
L 82.908645 -349.92 
L 82.908645 -349.92 
L 80.610537 -349.92 
L 80.610537 -349.92 
L 78.31243 -349.92 
L 78.31243 -349.92 
L 76.014322 -349.92 
L 76.014322 -349.92 
L 73.716215 -349.92 
L 73.716215 -349.92 
L 71.418107 -349.92 
L 71.418107 -349.92 
L 69.12 -349.92 
z
"/>
    </defs>
    <g clip-path="url(#pd5489157d7)">
     <use xlink:href="#mfabf604714" x="0" y="648" style="fill: #009688; fill-opacity: 0.3"/>
    </g>
   </g>
   <g id="matplotlib.axis_1">
    <g id="xtick_1">
     <g id="line2d_1">
      <path d="M 112.784041 544.32 
L 112.784041 51.84 
" clip-path="url(#pd5489157d7)" style="fill: none; stroke: #808080; stroke-width: 0.8; stroke-linecap: square"/>
     </g>
     <g id="line2d_2">
      <defs>
       <path id="m0ab794c2ed" d="M 0 0 
L 0 3.5 
" style="stroke: #000000; stroke-width: 0.8"/>
      </defs>
      <g>
       <use xlink:href="#m0ab794c2ed" x="112.784041" y="544.32" style="stroke: #000000; stroke-width: 0.8"/>
      </g>
     </g>
     <g id="text_1">
      <text style="font-size: 10px; font-family: 'DejaVu Sans'" transform="translate(89.456697 558.918437)">10:00 PM</text>
      <text style="font-size: 10px; font-family: 'DejaVu Sans'" transform="translate(97.124666 570.11625)">18 Jan</text>
     </g>
    </g>
    <g id="xtick_2">
     <g id="line2d_3">
      <path d="M 167.938619 544.32 
L 167.938619 51.84 
" clip-path="url(#pd5489157d7)" style="fill: none; stroke: #808080; stroke-width: 0.8; stroke-linecap: square"/>
     </g>
     <g id="line2d_4">
      <g>
       <use xlink:href="#m0ab794c2ed" x="167.938619" y="544.32" style="stroke: #000000; stroke-width: 0.8"/>
      </g>
     </g>
     <g id="text_2">
      <text style="font-size: 10px; font-family: 'DejaVu Sans'" transform="translate(144.205806 558.918437)">12:00 AM</text>
      <text style="font-size: 10px; font-family: 'DejaVu Sans'" transform="translate(152.279244 570.11625)">19 Jan</text>
     </g>
    </g>
    <g id="xtick_3">
     <g id="line2d_5">
      <path d="M 223.093197 544.32 
L 223.093197 51.84 
" clip-path="url(#pd5489157d7)" style="fill: none; stroke: #808080; stroke-width: 0.8; stroke-linecap: square"/>
     </g>
     <g id="line2d_6">
      <g>
       <use xlink:href="#m0ab794c2ed" x="223.093197" y="544.32" style="stroke: #000000; stroke-width: 0.8"/>
      </g>
     </g>
     <g id="text_3">
      <text style="font-size: 10px; font-family: 'DejaVu Sans'" transform="translate(199.360384 558.918437)">02:00 AM</text>
      <text style="font-size: 10px; font-family: 'DejaVu Sans'" transform="translate(207.433822 570.11625)">19 Jan</text>
     </g>
    </g>
    <g id="xtick_4">
     <g id="line2d_7">
      <path d="M 278.247775 544.32 
L 278.247775 51.84 
" clip-path="url(#pd5489157d7)" style="fill: none; stroke: #808080; stroke-width: 0.8; stroke-linecap: square"/>
     </g>
     <g id="line2d_8">
      <g>
       <use xlink:href="#m0ab794c2ed" x="278.247775" y="544.32" style="stroke: #000000; stroke-width: 0.8"/>
      </g>
     </g>
     <g id="text_4">
      <text style="font-size: 10px; font-family: 'DejaVu Sans'" transform="translate(254.514962 558.918437)">04:00 AM</text>
      <text style="font-size: 10px; font-family: 'DejaVu Sans'" transform="translate(262.5884 570.11625)">19 Jan</text>
     </g>
    </g>
    <g id="xtick_5">
     <g id="line2d_9">
      <path d="M 333.402353 544.32 
L 333.402353 51.84 
" clip-path="url(#pd5489157d7)" style="fill: none; stroke: #808080; stroke-width: 0.8; stroke-linecap: square"/>
     </g>
     <g id="line2d_10">
      <g>
       <use xlink:href="#m0ab794c2ed" x="333.402353" y="544.32" style="stroke: #000000; stroke-width: 0.8"/>
      </g>
     </g>
     <g id="text_5">
      <text style="font-size: 10px; font-family: 'DejaVu Sans'" transform="translate(309.66954 558.918437)">06:00 AM</text>
      <text style="font-size: 10px; font-family: 'DejaVu Sans'" transform="translate(317.742978 570.11625)">19 Jan</text>
     </g>
    </g>
    <g id="xtick_6">
     <g id="line2d_11">
      <path d="M 388.556931 544.32 
L 388.556931 51.84 
" clip-path="url(#pd5489157d7)" style="fill: none; stroke: #808080; stroke-width: 0.8; stroke-linecap: square"/>
     </g>
     <g id="line2d_12">
      <g>
       <use xlink:href="#m0ab794c2ed" x="388.556931" y="544.32" style="stroke: #000000; stroke-width: 0.8"/>
      </g>
     </g>
     <g id="text_6">
      <text style="font-size: 10px; font-family: 'DejaVu Sans'" transform="translate(364.824118 558.918437)">08:00 AM</text>
      <text style="font-size: 10px; font-family: 'DejaVu Sans'" transform="translate(372.897556 570.11625)">19 Jan</text>
     </g>
    </g>
    <g id="xtick_7">
     <g id="line2d_13">
      <path d="M 443.711509 544.32 
L 443.711509 51.84 
" clip-path="url(#pd5489157d7)" style="fill: none; stroke: #808080; stroke-width: 0.8; stroke-linecap: square"/>
     </g>
     <g id="line2d_14">
      <g>
       <use xlink:href="#m0ab794c2ed" x="443.711509" y="544.32" style="stroke: #000000; stroke-width: 0.8"/>
      </g>
     </g>
     <g id="text_7">
      <text style="font-size: 10px; font-family: 'DejaVu Sans'" transform="translate(419.978696 558.918437)">10:00 AM</text>
      <text style="font-size: 10px; font-family: 'DejaVu Sans'" transform="translate(428.052134 570.11625)">19 Jan</text>
     </g>
    </g>
    <g id="xtick_8">
     <g id="line2d_15">
      <path d="M 498.866087 544.32 
L 498.866087 51.84 
" clip-path="url(#pd5489157d7)" style="fill: none; stroke: #808080; stroke-width: 0.8; stroke-linecap: square"/>
     </g>
     <g id="line2d_16">
      <g>
       <use xlink:href="#m0ab794c2ed" x="498.866087" y="544.32" style="stroke: #000000; stroke-width: 0.8"/>
      </g>
     </g>
     <g id="text_8">
      <text style="font-size: 10px; font-family: 'DejaVu Sans'" transform="translate(475.538743 558.918437)">12:00 PM</text>
      <text style="font-size: 10px; font-family: 'DejaVu Sans'" transform="translate(483.206712 570.11625)">19 Jan</text>
     </g>
    </g>
    <g id="xtick_9">
     <g id="line2d_17">
      <path d="M 554.020665 544.32 
L 554.020665 51.84 
" clip-path="url(#pd5489157d7)" style="fill: none; stroke: #808080; stroke-width: 0.8; stroke-linecap: square"/>
     </g>
     <g id="line2d_18">
      <g>
       <use xlink:href="#m0ab794c2ed" x="554.020665" y="544.32" style="stroke: #000000; stroke-width: 0.8"/>
      </g>
     </g>
     <g id="text_9">
      <text style="font-size: 10px; font-family: 'DejaVu Sans'" transform="translate(530.693321 558.918437)">02:00 PM</text>
      <text style="font-size: 10px; font-family: 'DejaVu Sans'" transform="translate(538.36129 570.11625)">19 Jan</text>
     </g>
    </g>
    <g id="xtick_10">
     <g id="line2d_19">
      <path d="M 609.175243 544.32 
L 609.175243 51.84 
" clip-path="url(#pd5489157d7)" style="fill: none; stroke: #808080; stroke-width: 0.8; stroke-linecap: square"/>
     </g>
     <g id="line2d_20">
      <g>
       <use xlink:href="#m0ab794c2ed" x="609.175243" y="544.32" style="stroke: #000000; stroke-width: 0.8"/>
      </g>
     </g>
     <g id="text_10">
      <text style="font-size: 10px; font-family: 'DejaVu Sans'" transform="translate(585.847899 558.918437)">04:00 PM</text>
      <text style="font-size: 10px; font-family: 'DejaVu Sans'" transform="translate(593.515868 570.11625)">19 Jan</text>
     </g>
    </g>
    <g id="xtick_11">
     <g id="line2d_21">
      <path d="M 664.329821 544.32 
L 664.329821 51.84 
" clip-path="url(#pd5489157d7)" style="fill: none; stroke: #808080; stroke-width: 0.8; stroke-linecap: square"/>
     </g>
     <g id="line2d_22">
      <g>
       <use xlink:href="#m0ab794c2ed" x="664.329821" y="544.32" style="stroke: #000000; stroke-width: 0.8"/>
      </g>
     </g>
     <g id="text_11">
      <text style="font-size: 10px; font-family: 'DejaVu Sans'" transform="translate(641.002477 558.918437)">06:00 PM</text>
      <text style="font-size: 10px; font-family: 'DejaVu Sans'" transform="translate(648.670446 570.11625)">19 Jan</text>
     </g>
    </g>
    <g id="xtick_12">
     <g id="line2d_23">
      <path d="M 719.484399 544.32 
L 719.484399 51.84 
" clip-path="url(#pd5489157d7)" style="fill: none; stroke: #808080; stroke-width: 0.8; stroke-linecap: square"/>
     </g>
     <g id="line2d_24">
      <g>
       <use xlink:href="#m0ab794c2ed" x="719.484399" y="544.32" style="stroke: #000000; stroke-width: 0.8"/>
      </g>
     </g>
     <g id="text_12">
      <text style="font-size: 10px; font-family: 'DejaVu Sans'" transform="translate(696.157055 558.918437)">08:00 PM</text>
      <text style="font-size: 10px; font-family: 'DejaVu Sans'" transform="translate(703.825024 570.11625)">19 Jan</text>
     </g>
    </g>
    <g id="xtick_13">
     <g id="line2d_25">
      <path d="M 774.638977 544.32 
L 774.638977 51.84 
" clip-path="url(#pd5489157d7)" style="fill: none; stroke: #808080; stroke-width: 0.8; stroke-linecap: square"/>
     </g>
     <g id="line2d_26">
      <g>
       <use xlink:href="#m0ab794c2ed" x="774.638977" y="544.32" style="stroke: #000000; stroke-width: 0.8"/>
      </g>
     </g>
     <g id="text_13">
      <text style="font-size: 10px; font-family: 'DejaVu Sans'" transform="translate(751.311633 558.918437)">10:00 PM</text>
      <text style="font-size: 10px; font-family: 'DejaVu Sans'" transform="translate(758.979602 570.11625)">19 Jan</text>
     </g>
    </g>
    <g id="xtick_14">
     <g id="line2d_27">
      <path d="M 829.793555 544.32 
L 829.793555 51.84 
" clip-path="url(#pd5489157d7)" style="fill: none; stroke: #808080; stroke-width: 0.8; stroke-linecap: square"/>
     </g>
     <g id="line2d_28">
      <g>
       <use xlink:href="#m0ab794c2ed" x="829.793555" y="544.32" style="stroke: #000000; stroke-width: 0.8"/>
      </g>
     </g>
     <g id="text_14">
      <text style="font-size: 10px; font-family: 'DejaVu Sans'" transform="translate(806.060742 558.918437)">12:00 AM</text>
      <text style="font-size: 10px; font-family: 'DejaVu Sans'" transform="translate(814.13418 570.11625)">20 Jan</text>
     </g>
    </g>
    <g id="xtick_15">
     <g id="line2d_29">
      <path d="M 884.948133 544.32 
L 884.948133 51.84 
" clip-path="url(#pd5489157d7)" style="fill: none; stroke: #808080; stroke-width: 0.8; stroke-linecap: square"/>
     </g>
     <g id="line2d_30">
      <g>
       <use xlink:href="#m0ab794c2ed" x="884.948133" y="544.32" style="stroke: #000000; stroke-width: 0.8"/>
      </g>
     </g>
     <g id="text_15">
      <text style="font-size: 10px; font-family: 'DejaVu Sans'" transform="translate(861.21532 558.918437)">02:00 AM</text>
      <text style="font-size: 10px; font-family: 'DejaVu Sans'" transform="translate(869.288758 570.11625)">20 Jan</text>
     </g>
    </g>
    <g id="xtick_16">
     <g id="line2d_31">
      <path d="M 940.102711 544.32 
L 940.102711 51.84 
" clip-path="url(#pd5489157d7)" style="fill: none; stroke: #808080; stroke-width: 0.8; stroke-linecap: square"/>
     </g>
     <g id="line2d_32">
      <g>
       <use xlink:href="#m0ab794c2ed" x="940.102711" y="544.32" style="stroke: #000000; stroke-width: 0.8"/>
      </g>
     </g>
     <g id="text_16">
      <text style="font-size: 10px; font-family: 'DejaVu Sans'" transform="translate(916.369898 558.918437)">04:00 AM</text>
      <text style="font-size: 10px; font-family: 'DejaVu Sans'" transform="translate(924.443336 570.11625)">20 Jan</text>
     </g>
    </g>
   </g>
   <g id="matplotlib.axis_2">
    <g id="ytick_1">
     <g id="line2d_33">
      <path d="M 69.12 543.043343 
L 967.68 543.043343 
" clip-path="url(#pd5489157d7)" style="fill: none; stroke: #808080; stroke-width: 0.8; stroke-linecap: square"/>
     </g>
     <g id="line2d_34">
      <defs>
       <path id="maffbed281b" d="M 0 0 
L -3.5 0 
" style="stroke: #000000; stroke-width: 0.8"/>
      </defs>
      <g>
       <use xlink:href="#maffbed281b" x="69.12" y="543.043343" style="stroke: #000000; stroke-width: 0.8"/>
      </g>
     </g>
     <g id="text_17">
      <text style="font-size: 10px; font-family: 'DejaVu Sans'; text-anchor: end" x="62.12" y="546.842562" transform="rotate(-0 62.12 546.842562)">−4</text>
     </g>
    </g>
    <g id="ytick_2">
     <g id="line2d_35">
      <path d="M 69.12 481.802507 
L 967.68 481.802507 
" clip-path="url(#pd5489157d7)" style="fill: none; stroke: #808080; stroke-width: 0.8; stroke-linecap: square"/>
     </g>
     <g id="line2d_36">
      <g>
       <use xlink:href="#maffbed281b" x="69.12" y="481.802507" style="stroke: #000000; stroke-width: 0.8"/>
      </g>
     </g>
     <g id="text_18">
      <text style="font-size: 10px; font-family: 'DejaVu Sans'; text-anchor: end" x="62.12" y="485.601726" transform="rotate(-0 62.12 485.601726)">−3</text>
     </g>
    </g>
    <g id="ytick_3">
     <g id="line2d_37">
      <path d="M 69.12 420.561671 
L 967.68 420.561671 
" clip-path="url(#pd5489157d7)" style="fill: none; stroke: #808080; stroke-width: 0.8; stroke-linecap: square"/>
     </g>
     <g id="line2d_38">
      <g>
       <use xlink:href="#maffbed281b" x="69.12" y="420.561671" style="stroke: #000000; stroke-width: 0.8"/>
      </g>
     </g>
     <g id="text_19">
      <text style="font-size: 10px; font-family: 'DejaVu Sans'; text-anchor: end" x="62.12" y="424.36089" transform="rotate(-0 62.12 424.36089)">−2</text>
     </g>
    </g>
    <g id="ytick_4">
     <g id="line2d_39">
      <path d="M 69.12 359.320836 
L 967.68 359.320836 
" clip-path="url(#pd5489157d7)" style="fill: none; stroke: #808080; stroke-width: 0.8; stroke-linecap: square"/>
     </g>
     <g id="line2d_40">
      <g>
       <use xlink:href="#maffbed281b" x="69.12" y="359.320836" style="stroke: #000000; stroke-width: 0.8"/>
      </g>
     </g>
     <g id="text_20">
      <text style="font-size: 10px; font-family: 'DejaVu Sans'; text-anchor: end" x="62.12" y="363.120054" transform="rotate(-0 62.12 363.120054)">−1</text>
     </g>
    </g>
    <g id="ytick_5">
     <g id="line2d_41">
      <path d="M 69.12 298.08 
L 967.68 298.08 
" clip-path="url(#pd5489157d7)" style="fill: none; stroke: #808080; stroke-width: 0.8; stroke-linecap: square"/>
     </g>
     <g id="line2d_42">
      <g>
       <use xlink:href="#maffbed281b" x="69.12" y="298.08" style="stroke: #000000; stroke-width: 0.8"/>
      </g>
     </g>
     <g id="text_21">
      <text style="font-size: 10px; font-family: 'DejaVu Sans'; text-anchor: end" x="62.12" y="301.879219" transform="rotate(-0 62.12 301.879219)">0</text>
     </g>
    </g>
    <g id="ytick_6">
     <g id="line2d_43">
      <path d="M 69.12 236.839164 
L 967.68 236.839164 
" clip-path="url(#pd5489157d7)" style="fill: none; stroke: #808080; stroke-width: 0.8; stroke-linecap: square"/>
     </g>
     <g id="line2d_44">
      <g>
       <use xlink:href="#maffbed281b" x="69.12" y="236.839164" style="stroke: #000000; stroke-width: 0.8"/>
      </g>
     </g>
     <g id="text_22">
      <text style="font-size: 10px; font-family: 'DejaVu Sans'; text-anchor: end" x="62.12" y="240.638383" transform="rotate(-0 62.12 240.638383)">1</text>
     </g>
    </g>
    <g id="ytick_7">
     <g id="line2d_45">
      <path d="M 69.12 175.598329 
L 967.68 175.598329 
" clip-path="url(#pd5489157d7)" style="fill: none; stroke: #808080; stroke-width: 0.8; stroke-linecap: square"/>
     </g>
     <g id="line2d_46">
      <g>
       <use xlink:href="#maffbed281b" x="69.12" y="175.598329" style="stroke: #000000; stroke-width: 0.8"/>
      </g>
     </g>
     <g id="text_23">
      <text style="font-size: 10px; font-family: 'DejaVu Sans'; text-anchor: end" x="62.12" y="179.397547" transform="rotate(-0 62.12 179.397547)">2</text>
     </g>
    </g>
    <g id="ytick_8">
     <g id="line2d_47">
      <path d="M 69.12 114.357493 
L 967.68 114.357493 
" clip-path="url(#pd5489157d7)" style="fill: none; stroke: #808080; stroke-width: 0.8; stroke-linecap: square"/>
     </g>
     <g id="line2d_48">
      <g>
       <use xlink:href="#maffbed281b" x="69.12" y="114.357493" style="stroke: #000000; stroke-width: 0.8"/>
      </g>
     </g>
     <g id="text_24">
      <text style="font-size: 10px; font-family: 'DejaVu Sans'; text-anchor: end" x="62.12" y="118.156712" transform="rotate(-0 62.12 118.156712)">3</text>
     </g>
    </g>
    <g id="ytick_9">
     <g id="line2d_49">
      <path d="M 69.12 53.116657 
L 967.68 53.116657 
" clip-path="url(#pd5489157d7)" style="fill: none; stroke: #808080; stroke-width: 0.8; stroke-linecap: square"/>
     </g>
     <g id="line2d_50">
      <g>
       <use xlink:href="#maffbed281b" x="69.12" y="53.116657" style="stroke: #000000; stroke-width: 0.8"/>
      </g>
     </g>
     <g id="text_25">
      <text style="font-size: 10px; font-family: 'DejaVu Sans'; text-anchor: end" x="62.12" y="56.915876" transform="rotate(-0 62.12 56.915876)">4</text>
     </g>
    </g>
    <g id="text_26">
     <text style="font-size: 10px; font-family: 'DejaVu Sans'; text-anchor: middle" x="41.298125" y="298.08" transform="rotate(-90 41.298125 298.08)">Power (kW)</text>
    </g>
   </g>
   <g id="line2d_51">
    <path d="M 69.12 296.853591 
L 71.418107 296.853591 
L 71.418107 298.08 
L 333.402353 298.08 
L 333.402353 296.875699 
L 347.190997 296.875699 
L 347.190997 290.871647 
L 360.979642 290.871647 
L 360.979642 270.741785 
L 374.768286 270.741785 
L 374.768286 248.290588 
L 388.556931 248.290588 
L 388.556931 226.165193 
L 402.345575 226.165193 
L 402.345575 205.017201 
L 416.13422 205.017201 
L 416.13422 184.805888 
L 429.922864 184.805888 
L 429.922864 164.66439 
L 443.711509 164.66439 
L 443.711509 145.319941 
L 457.500153 145.319941 
L 457.500153 126.603823 
L 471.288798 126.603823 
L 471.288798 112.786359 
L 485.077442 112.786359 
L 485.077442 102.692338 
L 498.866087 102.692338 
L 498.866087 92.423781 
L 512.654731 92.423781 
L 512.654731 82.201767 
L 526.443376 82.201767 
L 526.443376 77.460195 
L 540.23202 77.460195 
L 540.23202 74.225455 
L 554.020665 74.225455 
L 554.020665 74.824696 
L 567.809309 74.824696 
L 567.809309 77.605642 
L 581.597954 77.605642 
L 581.597954 83.394432 
L 595.386598 83.394432 
L 595.386598 92.028165 
L 609.175243 92.028165 
L 609.175243 108.475311 
L 622.963887 108.475311 
L 622.963887 130.141093 
L 636.752532 130.141093 
L 636.752532 152.761008 
L 650.541176 152.761008 
L 650.541176 176.62595 
L 664.329821 176.62595 
L 664.329821 207.227995 
L 678.118465 207.227995 
L 678.118465 240.773888 
L 691.90711 240.773888 
L 691.90711 277.409075 
L 705.695754 277.409075 
L 705.695754 293.763133 
L 719.484399 293.763133 
L 719.484399 298.08 
L 967.68 298.08 
L 967.68 298.08 
" clip-path="url(#pd5489157d7)" style="fill: none; stroke: #ffc107; stroke-width: 2; stroke-linecap: square"/>
   </g>
   <g id="line2d_52">
    <path d="M 69.12 249.847943 
L 71.418107 249.847943 
L 71.418107 238.188188 
L 73.716215 238.188188 
L 73.716215 242.846153 
L 76.014322 242.846153 
L 76.014322 248.796638 
L 78.31243 248.796638 
L 78.31243 249.313937 
L 80.610537 249.313937 
L 80.610537 235.77048 
L 82.908645 235.77048 
L 82.908645 211.379714 
L 85.206752 211.379714 
L 85.206752 188.391641 
L 87.504859 188.391641 
L 87.504859 194.408966 
L 89.802967 194.408966 
L 89.802967 215.003115 
L 92.101074 215.003115 
L 92.101074 238.876915 
L 94.399182 238.876915 
L 94.399182 249.577314 
L 96.697289 249.577314 
L 96.697289 250.336517 
L 98.995396 250.336517 
L 98.995396 250.70803 
L 101.293504 250.70803 
L 101.293504 251.199678 
L 103.591611 251.199678 
L 103.591611 251.706972 
L 105.889719 251.706972 
L 105.889719 252.23538 
L 108.187826 252.23538 
L 108.187826 252.738535 
L 110.485934 252.738535 
L 110.485934 252.917021 
L 112.784041 252.917021 
L 112.784041 253.273388 
L 115.082148 253.273388 
L 115.082148 253.737881 
L 117.380256 253.737881 
L 117.380256 254.295438 
L 124.274578 254.195092 
L 124.274578 254.933167 
L 126.572685 254.933167 
L 126.572685 256.535502 
L 140.36133 256.535502 
L 140.36133 262.10212 
L 154.149974 262.10212 
L 154.149974 266.188277 
L 167.938619 266.188277 
L 167.938619 262.355568 
L 181.727263 262.355568 
L 181.727263 259.547613 
L 195.515908 259.547613 
L 195.515908 262.254936 
L 209.304552 262.254936 
L 209.304552 262.648497 
L 223.093197 262.648497 
L 223.093197 263.491855 
L 236.881841 263.491855 
L 236.881841 264.093315 
L 250.670486 264.093315 
L 250.670486 263.723611 
L 264.45913 263.723611 
L 264.45913 263.221395 
L 278.247775 263.221395 
L 278.247775 268.015216 
L 292.036419 268.015216 
L 292.036419 268.237962 
L 305.825064 268.237962 
L 305.825064 265.994391 
L 319.613708 265.994391 
L 319.613708 264.5334 
L 333.402353 264.5334 
L 333.402353 265.964231 
L 347.190997 265.964231 
L 347.190997 267.320913 
L 360.979642 267.320913 
L 360.979642 270.045809 
L 374.768286 270.045809 
L 374.768286 269.518214 
L 388.556931 269.518214 
L 388.556931 264.500254 
L 402.345575 264.500254 
L 402.345575 251.84451 
L 416.13422 251.84451 
L 416.13422 256.908013 
L 429.922864 256.908013 
L 429.922864 241.438402 
L 443.711509 241.438402 
L 443.711509 254.167605 
L 457.500153 254.167605 
L 457.500153 254.685983 
L 471.288798 254.685983 
L 471.288798 252.948237 
L 485.077442 252.948237 
L 485.077442 256.74245 
L 498.866087 256.74245 
L 498.866087 255.558648 
L 512.654731 255.558648 
L 512.654731 258.032892 
L 526.443376 258.032892 
L 526.443376 266.433688 
L 540.23202 266.433688 
L 540.23202 267.092932 
L 554.020665 267.092932 
L 554.020665 242.107382 
L 567.809309 242.107382 
L 567.809309 262.555741 
L 581.597954 262.555741 
L 581.597954 266.432625 
L 595.386598 266.432625 
L 595.386598 265.988804 
L 609.175243 265.988804 
L 609.175243 261.856817 
L 622.963887 261.856817 
L 622.963887 262.585445 
L 636.752532 262.585445 
L 636.752532 250.378152 
L 650.541176 250.378152 
L 650.541176 245.722612 
L 664.329821 245.722612 
L 664.329821 204.71879 
L 678.118465 204.71879 
L 678.118465 161.301336 
L 691.90711 161.301336 
L 691.90711 175.563746 
L 705.695754 175.563746 
L 705.695754 223.901323 
L 719.484399 223.901323 
L 719.484399 230.351139 
L 733.273043 230.351139 
L 733.273043 239.506341 
L 747.061688 239.506341 
L 747.061688 223.82833 
L 760.850332 223.82833 
L 760.850332 256.561445 
L 774.638977 256.561445 
L 774.638977 258.127999 
L 788.427621 258.127999 
L 788.427621 259.262288 
L 802.216266 259.262288 
L 802.216266 263.256698 
L 816.00491 263.256698 
L 816.00491 266.188277 
L 829.793555 266.188277 
L 829.793555 262.355568 
L 843.582199 262.355568 
L 843.582199 259.547613 
L 857.370844 259.547613 
L 857.370844 262.254936 
L 871.159488 262.254936 
L 871.159488 262.648497 
L 884.948133 262.648497 
L 884.948133 263.491855 
L 898.736777 263.491855 
L 898.736777 264.093315 
L 912.525422 264.093315 
L 912.525422 263.723611 
L 926.314066 263.723611 
L 926.314066 263.221395 
L 940.102711 263.221395 
L 940.102711 268.015216 
L 953.891355 268.015216 
L 953.891355 268.237962 
L 967.68 268.237962 
L 967.68 268.237962 
" clip-path="url(#pd5489157d7)" style="fill: none; stroke: #9c27b0; stroke-width: 2; stroke-linecap: square"/>
   </g>
   <g id="line2d_53">
    <path d="M 69.12 298.08 
L 967.68 298.08 
L 967.68 298.08 
" clip-path="url(#pd5489157d7)" style="fill: none; stroke: #2196f3; stroke-width: 2; stroke-linecap: square"/>
   </g>
   <g id="line2d_54">
    <path d="M 69.12 298.08 
L 374.768286 298.08 
L 374.768286 318.246244 
L 388.556931 318.246244 
L 388.556931 334.498308 
L 402.345575 334.498308 
L 402.345575 342.565943 
L 416.13422 342.565943 
L 416.13422 366.577017 
L 429.922864 366.577017 
L 429.922864 371.015312 
L 443.711509 371.015312 
L 443.711509 401.48528 
L 457.500153 401.48528 
L 457.500153 419.758051 
L 471.288798 419.758051 
L 471.288798 431.233781 
L 485.077442 431.233781 
L 485.077442 444.427605 
L 498.866087 444.427605 
L 498.866087 453.058123 
L 512.654731 453.058123 
L 512.654731 465.119567 
L 526.443376 465.119567 
L 526.443376 477.604815 
L 540.23202 477.604815 
L 540.23202 481.304105 
L 554.020665 481.304105 
L 554.020665 456.998554 
L 567.809309 456.998554 
L 567.809309 473.782591 
L 581.597954 473.782591 
L 581.597954 471.966286 
L 595.386598 471.966286 
L 595.386598 463.342609 
L 609.175243 463.342609 
L 609.175243 443.792433 
L 622.963887 443.792433 
L 622.963887 423.902132 
L 636.752532 423.902132 
L 636.752532 390.816287 
L 650.541176 390.816287 
L 650.541176 363.721829 
L 664.329821 363.721829 
L 664.329821 298.08 
L 967.68 298.08 
L 967.68 298.08 
" clip-path="url(#pd5489157d7)" style="fill: none; stroke: #009688; stroke-width: 2; stroke-linecap: square"/>
   </g>
   <g id="line2d_55">
    <path d="M 69.12 248.60037 
L 71.418107 248.60037 
L 71.418107 235.035989 
L 73.716215 235.035989 
L 73.716215 239.939109 
L 76.014322 239.939109 
L 76.014322 246.202777 
L 78.31243 246.202777 
L 78.31243 246.747302 
L 80.610537 246.747302 
L 80.610537 232.491034 
L 82.908645 232.491034 
L 82.908645 206.816543 
L 85.206752 206.816543 
L 85.206752 182.618568 
L 87.504859 182.618568 
L 87.504859 188.952597 
L 89.802967 188.952597 
L 89.802967 210.630646 
L 92.101074 210.630646 
L 92.101074 235.760964 
L 94.399182 235.760964 
L 94.399182 247.024541 
L 96.697289 247.024541 
L 96.697289 247.823702 
L 98.995396 247.823702 
L 98.995396 248.214768 
L 101.293504 248.214768 
L 101.293504 248.732293 
L 103.591611 248.732293 
L 103.591611 249.266286 
L 105.889719 249.266286 
L 105.889719 249.822505 
L 108.187826 249.822505 
L 108.187826 250.352143 
L 110.485934 250.352143 
L 110.485934 250.540022 
L 112.784041 250.540022 
L 112.784041 250.915145 
L 115.082148 250.915145 
L 115.082148 251.404085 
L 117.380256 251.404085 
L 117.380256 251.990987 
L 124.274578 251.88536 
L 124.274578 252.662281 
L 126.572685 252.662281 
L 126.572685 254.34895 
L 140.36133 254.34895 
L 140.36133 260.208547 
L 154.149974 260.208547 
L 154.149974 264.509765 
L 167.938619 264.509765 
L 167.938619 260.475335 
L 181.727263 260.475335 
L 181.727263 257.519592 
L 195.515908 257.519592 
L 195.515908 260.369406 
L 209.304552 260.369406 
L 209.304552 260.783681 
L 223.093197 260.783681 
L 223.093197 261.671426 
L 236.881841 261.671426 
L 236.881841 262.304542 
L 250.670486 262.304542 
L 250.670486 261.91538 
L 264.45913 261.91538 
L 264.45913 261.386731 
L 278.247775 261.386731 
L 278.247775 266.432859 
L 292.036419 266.432859 
L 292.036419 266.667328 
L 305.825064 266.667328 
L 305.825064 264.305675 
L 319.613708 264.305675 
L 319.613708 262.767789 
L 333.402353 262.767789 
L 333.402353 265.541613 
L 347.190997 265.541613 
L 347.190997 273.289753 
L 360.979642 273.289753 
L 360.979642 297.347394 
L 374.768286 297.347394 
L 374.768286 298.08 
L 664.329821 298.08 
L 664.329821 295.438731 
L 678.118465 295.438731 
L 678.118465 214.424682 
L 691.90711 214.424682 
L 691.90711 190.87439 
L 705.695754 190.87439 
L 705.695754 224.541251 
L 719.484399 224.541251 
L 719.484399 226.786463 
L 733.273043 226.786463 
L 733.273043 236.423517 
L 747.061688 236.423517 
L 747.061688 219.920348 
L 760.850332 219.920348 
L 760.850332 254.376258 
L 774.638977 254.376258 
L 774.638977 256.025262 
L 788.427621 256.025262 
L 788.427621 257.21925 
L 802.216266 257.21925 
L 802.216266 261.423893 
L 816.00491 261.423893 
L 816.00491 264.509765 
L 829.793555 264.509765 
L 829.793555 260.475335 
L 843.582199 260.475335 
L 843.582199 257.519592 
L 857.370844 257.519592 
L 857.370844 260.369406 
L 871.159488 260.369406 
L 871.159488 260.783681 
L 884.948133 260.783681 
L 884.948133 261.671426 
L 898.736777 261.671426 
L 898.736777 262.304542 
L 912.525422 262.304542 
L 912.525422 261.91538 
L 926.314066 261.91538 
L 926.314066 261.386731 
L 940.102711 261.386731 
L 940.102711 266.432859 
L 953.891355 266.432859 
L 953.891355 266.667328 
L 967.68 266.667328 
L 967.68 266.667328 
" clip-path="url(#pd5489157d7)" style="fill: none; stroke: #009688; stroke-width: 2; stroke-linecap: square"/>
   </g>
   <g id="line2d_56">
    <path d="M 69.12 298.08 
L 967.68 298.08 
" clip-path="url(#pd5489157d7)" style="fill: none; stroke: #808080; stroke-opacity: 0.5; stroke-width: 0.8; stroke-linecap: square"/>
   </g>
   <g id="patch_3">
    <path d="M 69.12 544.32 
L 69.12 51.84 
" style="fill: none; stroke: #000000; stroke-width: 0.8; stroke-linejoin: miter; stroke-linecap: square"/>
   </g>
   <g id="patch_4">
    <path d="M 967.68 544.32 
L 967.68 51.84 
" style="fill: none; stroke: #000000; stroke-width: 0.8; stroke-linejoin: miter; stroke-linecap: square"/>
   </g>
   <g id="patch_5">
    <path d="M 69.12 544.32 
L 967.68 544.32 
" style="fill: none; stroke: #000000; stroke-width: 0.8; stroke-linejoin: miter; stroke-linecap: square"/>
   </g>
   <g id="patch_6">
    <path d="M 69.12 51.84 
L 967.68 51.84 
" style="fill: none; stroke: #000000; stroke-width: 0.8; stroke-linejoin: miter; stroke-linecap: square"/>
   </g>
  </g>
  <g id="axes_2">
   <g id="matplotlib.axis_3">
    <g id="ytick_10">
     <g id="line2d_57">
      <defs>
       <path id="m8062b84c4b" d="M 0 0 
L 3.5 0 
" style="stroke: #000000; stroke-width: 0.8"/>
      </defs>
      <g>
       <use xlink:href="#m8062b84c4b" x="967.68" y="298.08" style="stroke: #000000; stroke-width: 0.8"/>
      </g>
     </g>
     <g id="text_27">
      <text style="font-size: 10px; font-family: 'DejaVu Sans'; text-anchor: start" x="974.68" y="301.879219" transform="rotate(-0 974.68 301.879219)">0</text>
     </g>
    </g>
    <g id="ytick_11">
     <g id="line2d_58">
      <g>
       <use xlink:href="#m8062b84c4b" x="967.68" y="248.832" style="stroke: #000000; stroke-width: 0.8"/>
      </g>
     </g>
     <g id="text_28">
      <text style="font-size: 10px; font-family: 'DejaVu Sans'; text-anchor: start" x="974.68" y="252.631219" transform="rotate(-0 974.68 252.631219)">20</text>
     </g>
    </g>
    <g id="ytick_12">
     <g id="line2d_59">
      <g>
       <use xlink:href="#m8062b84c4b" x="967.68" y="199.584" style="stroke: #000000; stroke-width: 0.8"/>
      </g>
     </g>
     <g id="text_29">
      <text style="font-size: 10px; font-family: 'DejaVu Sans'; text-anchor: start" x="974.68" y="203.383219" transform="rotate(-0 974.68 203.383219)">40</text>
     </g>
    </g>
    <g id="ytick_13">
     <g id="line2d_60">
      <g>
       <use xlink:href="#m8062b84c4b" x="967.68" y="150.336" style="stroke: #000000; stroke-width: 0.8"/>
      </g>
     </g>
     <g id="text_30">
      <text style="font-size: 10px; font-family: 'DejaVu Sans'; text-anchor: start" x="974.68" y="154.135219" transform="rotate(-0 974.68 154.135219)">60</text>
     </g>
    </g>
    <g id="ytick_14">
     <g id="line2d_61">
      <g>
       <use xlink:href="#m8062b84c4b" x="967.68" y="101.088" style="stroke: #000000; stroke-width: 0.8"/>
      </g>
     </g>
     <g id="text_31">
      <text style="font-size: 10px; font-family: 'DejaVu Sans'; text-anchor: start" x="974.68" y="104.887219" transform="rotate(-0 974.68 104.887219)">80</text>
     </g>
    </g>
    <g id="ytick_15">
     <g id="line2d_62">
      <g>
       <use xlink:href="#m8062b84c4b" x="967.68" y="51.84" style="stroke: #000000; stroke-width: 0.8"/>
      </g>
     </g>
     <g id="text_32">
      <text style="font-size: 10px; font-family: 'DejaVu Sans'; text-anchor: start" x="974.68" y="55.639219" transform="rotate(-0 974.68 55.639219)">100</text>
     </g>
    </g>
    <g id="text_33">
     <text style="font-size: 10px; font-family: 'DejaVu Sans'; text-anchor: middle" x="1005.365938" y="298.08" transform="rotate(-90 1005.365938 298.08)">SoC (%)</text>
    </g>
   </g>
   <g id="line2d_63">
    <path d="M 69.12 51.84 
L 967.68 51.84 
" clip-path="url(#pd5489157d7)" style="fill: none; stroke-dasharray: 1,1.65; stroke-dashoffset: 0; stroke: #4caf50; stroke-opacity: 0.6"/>
   </g>
   <g id="line2d_64">
    <path d="M 69.12 135.5616 
L 71.418107 135.5616 
L 71.418107 135.957282 
L 73.716215 135.957282 
L 73.716215 136.46144 
L 76.014322 136.46144 
L 76.014322 136.926387 
L 78.31243 136.926387 
L 78.31243 137.341245 
L 80.610537 137.341245 
L 80.610537 137.751749 
L 82.908645 137.751749 
L 82.908645 138.276258 
L 85.206752 138.276258 
L 85.206752 139.006086 
L 87.504859 139.006086 
L 87.504859 139.929422 
L 89.802967 139.929422 
L 89.802967 140.802098 
L 92.101074 140.802098 
L 92.101074 141.501426 
L 94.399182 141.501426 
L 94.399182 141.999783 
L 96.697289 141.999783 
L 96.697289 142.408071 
L 98.995396 142.408071 
L 98.995396 142.809965 
L 101.293504 142.809965 
L 101.293504 143.208733 
L 103.591611 143.208733 
L 103.591611 143.603364 
L 105.889719 143.603364 
L 105.889719 143.993721 
L 108.187826 143.993721 
L 108.187826 144.379631 
L 110.485934 144.379631 
L 110.485934 144.761309 
L 112.784041 144.761309 
L 112.784041 145.141482 
L 115.082148 145.141482 
L 115.082148 145.518652 
L 117.380256 145.518652 
L 117.380256 145.89192 
L 119.678363 145.89192 
L 119.678363 146.260487 
L 121.976471 146.260487 
L 121.976471 146.629289 
L 124.274578 146.629289 
L 124.274578 146.998702 
L 126.572685 146.998702 
L 126.572685 147.361903 
L 140.36133 147.361903 
L 140.36133 149.460179 
L 154.149974 149.460179 
L 154.149974 151.277307 
L 167.938619 151.277307 
L 167.938619 152.888057 
L 181.727263 152.888057 
L 181.727263 154.692385 
L 195.515908 154.692385 
L 195.515908 156.638533 
L 209.304552 156.638533 
L 209.304552 158.447939 
L 223.093197 158.447939 
L 223.093197 160.237475 
L 236.881841 160.237475 
L 236.881841 161.98441 
L 250.670486 161.98441 
L 250.670486 163.700967 
L 264.45913 163.700967 
L 264.45913 165.436201 
L 278.247775 165.436201 
L 278.247775 167.196799 
L 292.036419 167.196799 
L 292.036419 168.715271 
L 305.825064 168.715271 
L 305.825064 170.222501 
L 319.613708 170.222501 
L 319.613708 171.843042 
L 333.402353 171.843042 
L 333.402353 173.537373 
L 347.190997 173.537373 
L 347.190997 175.098611 
L 360.979642 175.098611 
L 360.979642 176.288086 
L 388.556931 176.323235 
L 388.556931 175.35563 
L 402.345575 175.35563 
L 402.345575 173.608225 
L 416.13422 173.608225 
L 416.13422 171.473724 
L 429.922864 171.473724 
L 429.922864 168.187136 
L 443.711509 168.187136 
L 443.711509 164.687596 
L 457.500153 164.687596 
L 457.500153 159.72606 
L 471.288798 159.72606 
L 471.288798 153.887768 
L 485.077442 153.887768 
L 485.077442 147.498857 
L 498.866087 147.498857 
L 498.866087 140.476885 
L 512.654731 140.476885 
L 512.654731 133.040808 
L 526.443376 133.040808 
L 526.443376 125.026001 
L 540.23202 125.026001 
L 540.23202 116.412138 
L 554.020665 116.412138 
L 554.020665 107.620777 
L 567.809309 107.620777 
L 567.809309 99.995635 
L 581.597954 99.995635 
L 581.597954 91.56517 
L 595.386598 91.56517 
L 595.386598 83.221848 
L 609.175243 83.221848 
L 609.175243 75.292309 
L 622.963887 75.292309 
L 622.963887 68.300815 
L 636.752532 68.300815 
L 636.752532 62.26368 
L 650.541176 62.26368 
L 650.541176 57.814059 
L 664.329821 57.814059 
L 664.329821 54.664467 
L 678.118465 54.664467 
L 678.118465 54.791201 
L 691.90711 54.791201 
L 691.90711 58.805107 
L 705.695754 58.805107 
L 705.695754 63.94899 
L 719.484399 63.94899 
L 719.484399 67.477486 
L 733.273043 67.477486 
L 733.273043 70.898253 
L 747.061688 70.898253 
L 747.061688 73.856618 
L 760.850332 73.856618 
L 760.850332 77.606836 
L 774.638977 77.606836 
L 774.638977 79.703807 
L 788.427621 79.703807 
L 788.427621 81.721653 
L 802.216266 81.721653 
L 802.216266 83.682211 
L 816.00491 83.682211 
L 816.00491 85.441023 
L 829.793555 85.441023 
L 829.793555 87.051773 
L 843.582199 87.051773 
L 843.582199 88.856101 
L 857.370844 88.856101 
L 857.370844 90.80225 
L 871.159488 90.80225 
L 871.159488 92.611655 
L 884.948133 92.611655 
L 884.948133 94.401191 
L 898.736777 94.401191 
L 898.736777 96.148126 
L 912.525422 96.148126 
L 912.525422 97.864683 
L 926.314066 97.864683 
L 926.314066 99.599917 
L 940.102711 99.599917 
L 940.102711 101.36051 
L 953.891355 101.36051 
L 953.891355 102.878988 
L 967.68 102.878988 
L 967.68 104.386217 
L 967.68 104.386217 
" clip-path="url(#pd5489157d7)" style="fill: none; stroke-dasharray: 2.2,3.63; stroke-dashoffset: 0; stroke: #4caf50; stroke-width: 2.2"/>
   </g>
   <g id="line2d_65">
    <path d="M 69.12 167.5728 
L 967.68 167.5728 
L 967.68 167.5728 
" clip-path="url(#pd5489157d7)" style="fill: none; stroke-dasharray: 2.2,3.63; stroke-dashoffset: 0; stroke: #8bc34a; stroke-width: 2.2"/>
   </g>
   <g id="patch_7">
    <path d="M 69.12 544.32 
L 69.12 51.84 
" style="fill: none; stroke: #000000; stroke-width: 0.8; stroke-linejoin: miter; stroke-linecap: square"/>
   </g>
   <g id="patch_8">
    <path d="M 967.68 544.32 
L 967.68 51.84 
" style="fill: none; stroke: #000000; stroke-width: 0.8; stroke-linejoin: miter; stroke-linecap: square"/>
   </g>
   <g id="patch_9">
    <path d="M 69.12 544.32 
L 967.68 544.32 
" style="fill: none; stroke: #000000; stroke-width: 0.8; stroke-linejoin: miter; stroke-linecap: square"/>
   </g>
   <g id="patch_10">
    <path d="M 69.12 51.84 
L 967.68 51.84 
" style="fill: none; stroke: #000000; stroke-width: 0.8; stroke-linejoin: miter; stroke-linecap: square"/>
   </g>
  </g>
  <g id="axes_3">
   <g id="matplotlib.axis_4">
    <g id="ytick_16">
     <g id="line2d_66">
      <g>
       <use xlink:href="#m8062b84c4b" x="1057.536" y="497.061818" style="stroke: #000000; stroke-width: 0.8"/>
      </g>
     </g>
     <g id="text_34">
      <text style="font-size: 10px; font-family: 'DejaVu Sans'; text-anchor: start" x="1064.536" y="500.861037" transform="rotate(-0 1064.536 500.861037)">−0.2</text>
     </g>
    </g>
    <g id="ytick_17">
     <g id="line2d_67">
      <g>
       <use xlink:href="#m8062b84c4b" x="1057.536" y="397.570909" style="stroke: #000000; stroke-width: 0.8"/>
      </g>
     </g>
     <g id="text_35">
      <text style="font-size: 10px; font-family: 'DejaVu Sans'; text-anchor: start" x="1064.536" y="401.370128" transform="rotate(-0 1064.536 401.370128)">−0.1</text>
     </g>
    </g>
    <g id="ytick_18">
     <g id="line2d_68">
      <g>
       <use xlink:href="#m8062b84c4b" x="1057.536" y="298.08" style="stroke: #000000; stroke-width: 0.8"/>
      </g>
     </g>
     <g id="text_36">
      <text style="font-size: 10px; font-family: 'DejaVu Sans'; text-anchor: start" x="1064.536" y="301.879219" transform="rotate(-0 1064.536 301.879219)">0.0</text>
     </g>
    </g>
    <g id="ytick_19">
     <g id="line2d_69">
      <g>
       <use xlink:href="#m8062b84c4b" x="1057.536" y="198.589091" style="stroke: #000000; stroke-width: 0.8"/>
      </g>
     </g>
     <g id="text_37">
      <text style="font-size: 10px; font-family: 'DejaVu Sans'; text-anchor: start" x="1064.536" y="202.38831" transform="rotate(-0 1064.536 202.38831)">0.1</text>
     </g>
    </g>
    <g id="ytick_20">
     <g id="line2d_70">
      <g>
       <use xlink:href="#m8062b84c4b" x="1057.536" y="99.098182" style="stroke: #000000; stroke-width: 0.8"/>
      </g>
     </g>
     <g id="text_38">
      <text style="font-size: 10px; font-family: 'DejaVu Sans'; text-anchor: start" x="1064.536" y="102.897401" transform="rotate(-0 1064.536 102.897401)">0.2</text>
     </g>
    </g>
    <g id="text_39">
     <text style="font-size: 10px; font-family: 'DejaVu Sans'; text-anchor: middle" x="1100.41725" y="298.08" transform="rotate(-90 1100.41725 298.08)">Price ($)</text>
    </g>
   </g>
   <g id="line2d_71">
    <path d="M 69.12 168.741818 
L 71.418107 168.741818 
L 71.418107 158.792727 
L 96.697289 158.792727 
L 96.697289 168.708655 
L 98.995396 168.708655 
L 98.995396 158.825891 
L 112.784041 158.792727 
L 112.784041 168.708655 
L 154.149974 168.741818 
L 154.149974 198.572509 
L 167.938619 198.572509 
L 167.938619 178.701964 
L 209.304552 178.690909 
L 209.304552 198.578036 
L 278.247775 198.589091 
L 278.247775 178.701964 
L 292.036419 178.701964 
L 292.036419 168.747345 
L 333.402353 168.741818 
L 333.402353 158.798255 
L 360.979642 158.792727 
L 360.979642 168.736291 
L 374.768286 168.736291 
L 374.768286 198.572509 
L 402.345575 198.589091 
L 402.345575 208.532655 
L 416.13422 208.532655 
L 416.13422 228.425309 
L 429.922864 228.425309 
L 429.922864 238.379927 
L 678.118465 238.385455 
L 678.118465 218.498327 
L 691.90711 218.498327 
L 691.90711 178.713018 
L 705.695754 178.713018 
L 705.695754 168.747345 
L 719.484399 168.747345 
L 719.484399 148.854691 
L 747.061688 148.843636 
L 747.061688 158.7872 
L 788.427621 158.792727 
L 788.427621 168.736291 
L 967.68 168.741818 
L 967.68 168.741818 
" clip-path="url(#pd5489157d7)" style="fill: none; stroke: #3f51b5; stroke-width: 2; stroke-linecap: square"/>
   </g>
   <g id="line2d_72">
    <path d="M 69.12 136.407273 
L 71.418107 136.407273 
L 71.418107 123.970909 
L 85.206752 123.970909 
L 85.206752 122.186935 
L 87.504859 122.186935 
L 87.504859 120.25239 
L 89.802967 120.25239 
L 89.802967 118.317844 
L 92.101074 118.317844 
L 92.101074 116.383299 
L 94.399182 116.383299 
L 94.399182 114.448754 
L 96.697289 114.448754 
L 96.697289 125.724725 
L 98.995396 125.724725 
L 98.995396 110.624306 
L 101.293504 110.624306 
L 101.293504 108.645117 
L 103.591611 108.645117 
L 103.591611 106.710572 
L 105.889719 106.710572 
L 105.889719 104.776026 
L 108.187826 104.776026 
L 108.187826 102.841481 
L 110.485934 102.841481 
L 110.485934 100.906935 
L 112.784041 100.906935 
L 112.784041 113.146955 
L 115.082148 113.146955 
L 115.082148 111.397998 
L 117.380256 111.397998 
L 117.380256 109.601635 
L 119.678363 109.601635 
L 119.678363 107.805271 
L 121.976471 107.805271 
L 121.976471 106.008908 
L 124.274578 106.008908 
L 124.274578 104.212544 
L 126.572685 104.212544 
L 126.572685 104.072727 
L 154.149974 104.072727 
L 154.149974 148.818764 
L 167.938619 148.818764 
L 167.938619 119.012945 
L 209.304552 118.996364 
L 209.304552 148.827055 
L 278.247775 148.843636 
L 278.247775 119.012945 
L 292.036419 119.012945 
L 292.036419 104.081018 
L 333.402353 104.072727 
L 333.402353 89.157382 
L 360.979642 89.149091 
L 360.979642 104.064436 
L 374.768286 104.064436 
L 374.768286 148.818764 
L 402.345575 148.843636 
L 402.345575 163.758982 
L 416.13422 163.758982 
L 416.13422 193.597964 
L 429.922864 193.597964 
L 429.922864 208.529891 
L 678.118465 208.538182 
L 678.118465 178.707491 
L 691.90711 178.707491 
L 691.90711 119.029527 
L 705.695754 119.029527 
L 705.695754 104.081018 
L 719.484399 104.081018 
L 719.484399 74.242036 
L 747.061688 74.225455 
L 747.061688 89.1408 
L 788.427621 89.149091 
L 788.427621 104.064436 
L 967.68 104.072727 
L 967.68 104.072727 
" clip-path="url(#pd5489157d7)" style="fill: none; stroke-dasharray: 1.5,2.475; stroke-dashoffset: 0; stroke: #3f51b5; stroke-opacity: 0.35; stroke-width: 1.5"/>
   </g>
   <g id="line2d_73">
    <path d="M 69.12 198.589091 
L 71.418107 198.589091 
L 71.418107 188.64 
L 85.206752 188.64 
L 85.206752 228.303709 
L 87.504859 228.303709 
L 87.504859 228.436364 
L 96.697289 228.436364 
L 96.697289 238.352291 
L 98.995396 238.352291 
L 98.995396 228.469527 
L 112.784041 228.436364 
L 112.784041 238.352291 
L 154.149974 238.385455 
L 154.149974 258.272582 
L 167.938619 258.272582 
L 167.938619 248.340073 
L 209.304552 248.334545 
L 209.304552 258.278109 
L 223.093197 258.278109 
L 223.093197 268.2272 
L 264.45913 268.232727 
L 264.45913 258.289164 
L 278.247775 258.289164 
L 278.247775 248.340073 
L 292.036419 248.340073 
L 292.036419 238.390982 
L 333.402353 238.385455 
L 333.402353 228.441891 
L 360.979642 228.436364 
L 360.979642 238.379927 
L 374.768286 238.379927 
L 374.768286 258.272582 
L 402.345575 258.283636 
L 402.345575 268.2272 
L 416.13422 268.2272 
L 416.13422 288.119855 
L 429.922864 288.119855 
L 429.922864 298.074473 
L 443.711509 298.074473 
L 443.711509 317.967127 
L 567.809309 317.978182 
L 567.809309 308.034618 
L 581.597954 308.034618 
L 581.597954 298.085527 
L 609.175243 298.08 
L 609.175243 258.305745 
L 636.752532 258.283636 
L 636.752532 268.2272 
L 650.541176 268.2272 
L 650.541176 258.289164 
L 678.118465 258.283636 
L 678.118465 248.340073 
L 691.90711 248.340073 
L 691.90711 208.560291 
L 705.695754 208.560291 
L 705.695754 198.594618 
L 719.484399 198.594618 
L 719.484399 178.701964 
L 747.061688 178.690909 
L 747.061688 228.408727 
L 802.216266 228.436364 
L 802.216266 238.379927 
L 967.68 238.385455 
L 967.68 238.385455 
" clip-path="url(#pd5489157d7)" style="fill: none; stroke: #e91e63; stroke-width: 2; stroke-linecap: square"/>
   </g>
   <g id="line2d_74">
    <path d="M 69.12 223.461818 
L 71.418107 223.461818 
L 71.418107 216 
L 85.206752 216 
L 85.206752 246.283993 
L 87.504859 246.283993 
L 87.504859 246.962828 
L 89.802967 246.962828 
L 89.802967 247.543192 
L 92.101074 247.543192 
L 92.101074 248.123556 
L 94.399182 248.123556 
L 94.399182 248.703919 
L 96.697289 248.703919 
L 96.697289 256.231864 
L 98.995396 256.231864 
L 98.995396 249.887606 
L 101.293504 249.887606 
L 101.293504 250.44501 
L 103.591611 250.44501 
L 103.591611 251.025374 
L 105.889719 251.025374 
L 105.889719 251.605738 
L 108.187826 251.605738 
L 108.187826 252.186101 
L 110.485934 252.186101 
L 110.485934 252.766465 
L 112.784041 252.766465 
L 112.784041 259.71598 
L 115.082148 259.71598 
L 115.082148 260.234736 
L 117.380256 260.234736 
L 117.380256 260.732191 
L 119.678363 260.732191 
L 119.678363 261.229645 
L 121.976471 261.229645 
L 121.976471 261.7271 
L 124.274578 261.7271 
L 124.274578 262.224554 
L 154.149974 262.263273 
L 154.149974 274.195549 
L 167.938619 274.195549 
L 167.938619 268.236044 
L 209.304552 268.232727 
L 209.304552 274.198865 
L 223.093197 274.198865 
L 223.093197 280.16832 
L 264.45913 280.171636 
L 264.45913 274.205498 
L 278.247775 274.205498 
L 278.247775 268.236044 
L 292.036419 268.236044 
L 292.036419 262.266589 
L 333.402353 262.263273 
L 333.402353 256.297135 
L 360.979642 256.293818 
L 360.979642 262.259956 
L 374.768286 262.259956 
L 374.768286 274.195549 
L 402.345575 274.202182 
L 402.345575 280.16832 
L 416.13422 280.16832 
L 416.13422 292.103913 
L 429.922864 292.103913 
L 429.922864 298.076684 
L 443.711509 298.076684 
L 443.711509 327.910691 
L 567.809309 327.927273 
L 567.809309 313.011927 
L 581.597954 313.011927 
L 581.597954 298.088291 
L 609.175243 298.08 
L 609.175243 274.215447 
L 636.752532 274.202182 
L 636.752532 280.16832 
L 650.541176 280.16832 
L 650.541176 274.205498 
L 678.118465 274.202182 
L 678.118465 268.236044 
L 691.90711 268.236044 
L 691.90711 244.368175 
L 705.695754 244.368175 
L 705.695754 238.388771 
L 719.484399 238.388771 
L 719.484399 226.453178 
L 747.061688 226.446545 
L 747.061688 256.277236 
L 802.216266 256.293818 
L 802.216266 262.259956 
L 967.68 262.263273 
L 967.68 262.263273 
" clip-path="url(#pd5489157d7)" style="fill: none; stroke-dasharray: 1.5,2.475; stroke-dashoffset: 0; stroke: #e91e63; stroke-opacity: 0.35; stroke-width: 1.5"/>
   </g>
   <g id="patch_11">
    <path d="M 69.12 544.32 
L 69.12 51.84 
" style="fill: none; stroke: #000000; stroke-width: 0.8; stroke-linejoin: miter; stroke-linecap: square"/>
   </g>
   <g id="patch_12">
    <path d="M 1057.536 544.32 
L 1057.536 51.84 
" style="fill: none; stroke: #000000; stroke-width: 0.8; stroke-linejoin: miter; stroke-linecap: square"/>
   </g>
   <g id="patch_13">
    <path d="M 69.12 544.32 
L 967.68 544.32 
" style="fill: none; stroke: #000000; stroke-width: 0.8; stroke-linejoin: miter; stroke-linecap: square"/>
   </g>
   <g id="patch_14">
    <path d="M 69.12 51.84 
L 967.68 51.84 
" style="fill: none; stroke: #000000; stroke-width: 0.8; stroke-linejoin: miter; stroke-linecap: square"/>
   </g>
  </g>
  <g id="text_40">
   <text style="font-size: 16px; font-family: 'DejaVu Sans'; text-anchor: middle" x="576" y="25.1875" transform="rotate(-0 576 25.1875)">EMS Plan | Cost: $0.00 | Grid Export: 0.00 kWh | Grid Import: 0.00 kWh</text>
  </g>
  <g id="legend_1">
   <g id="patch_15">
    <path d="M 317.698437 630.04 
L 834.301563 630.04 
Q 836.301563 630.04 836.301563 628.04 
L 836.301563 585.005625 
Q 836.301563 583.005625 834.301563 583.005625 
L 317.698437 583.005625 
Q 315.698437 583.005625 315.698437 585.005625 
L 315.698437 628.04 
Q 315.698437 630.04 317.698437 630.04 
z
" style="fill: #ffffff; opacity: 0.8; stroke: #cccccc; stroke-linejoin: miter"/>
   </g>
   <g id="line2d_75">
    <path d="M 319.698437 591.104063 
L 329.698437 591.104063 
L 329.698437 591.104063 
L 339.698437 591.104063 
L 339.698437 591.104063 
" style="fill: none; stroke: #ffc107; stroke-width: 2; stroke-linecap: square"/>
   </g>
   <g id="text_41">
    <text style="font-size: 10px; font-family: 'DejaVu Sans'; text-anchor: start" x="347.698437" y="594.604063" transform="rotate(-0 347.698437 594.604063)">PV Power</text>
   </g>
   <g id="line2d_76">
    <path d="M 319.698437 605.782187 
L 329.698437 605.782187 
L 329.698437 605.782187 
L 339.698437 605.782187 
L 339.698437 605.782187 
" style="fill: none; stroke: #9c27b0; stroke-width: 2; stroke-linecap: square"/>
   </g>
   <g id="text_42">
    <text style="font-size: 10px; font-family: 'DejaVu Sans'; text-anchor: start" x="347.698437" y="609.282187" transform="rotate(-0 347.698437 609.282187)">Load</text>
   </g>
   <g id="line2d_77">
    <path d="M 319.698437 620.460312 
L 329.698437 620.460312 
L 329.698437 620.460312 
L 339.698437 620.460312 
L 339.698437 620.460312 
" style="fill: none; stroke: #2196f3; stroke-width: 2; stroke-linecap: square"/>
   </g>
   <g id="text_43">
    <text style="font-size: 10px; font-family: 'DejaVu Sans'; text-anchor: start" x="347.698437" y="623.960312" transform="rotate(-0 347.698437 623.960312)">Grid Net</text>
   </g>
   <g id="line2d_78">
    <path d="M 413.975 591.104063 
L 423.975 591.104063 
L 423.975 591.104063 
L 433.975 591.104063 
L 433.975 591.104063 
" style="fill: none; stroke: #009688; stroke-width: 2; stroke-linecap: square"/>
   </g>
   <g id="text_44">
    <text style="font-size: 10px; font-family: 'DejaVu Sans'; text-anchor: start" x="441.975" y="594.604063" transform="rotate(-0 441.975 594.604063)">Battery Charge</text>
   </g>
   <g id="line2d_79">
    <path d="M 413.975 605.782187 
L 423.975 605.782187 
L 423.975 605.782187 
L 433.975 605.782187 
L 433.975 605.782187 
" style="fill: none; stroke: #009688; stroke-width: 2; stroke-linecap: square"/>
   </g>
   <g id="text_45">
    <text style="font-size: 10px; font-family: 'DejaVu Sans'; text-anchor: start" x="441.975" y="609.282187" transform="rotate(-0 441.975 609.282187)">Battery Discharge</text>
   </g>
   <g id="line2d_80">
    <path d="M 413.975 620.460312 
L 423.975 620.460312 
L 423.975 620.460312 
L 433.975 620.460312 
L 433.975 620.460312 
" style="fill: none; stroke-dasharray: 2.2,3.63; stroke-dashoffset: 0; stroke: #4caf50; stroke-width: 2.2"/>
   </g>
   <g id="text_46">
    <text style="font-size: 10px; font-family: 'DejaVu Sans'; text-anchor: start" x="441.975" y="623.960312" transform="rotate(-0 441.975 623.960312)">Battery SoC</text>
   </g>
   <g id="line2d_81">
    <path d="M 552.254688 591.104063 
L 562.254688 591.104063 
L 562.254688 591.104063 
L 572.254688 591.104063 
L 572.254688 591.104063 
" style="fill: none; stroke-dasharray: 2.2,3.63; stroke-dashoffset: 0; stroke: #8bc34a; stroke-width: 2.2"/>
   </g>
   <g id="text_47">
    <text style="font-size: 10px; font-family: 'DejaVu Sans'; text-anchor: start" x="580.254688" y="594.604063" transform="rotate(-0 580.254688 594.604063)">EV SoC</text>
   </g>
   <g id="line2d_82">
    <path d="M 552.254688 605.782187 
L 562.254688 605.782187 
L 562.254688 605.782187 
L 572.254688 605.782187 
L 572.254688 605.782187 
" style="fill: none; stroke: #3f51b5; stroke-width: 2; stroke-linecap: square"/>
   </g>
   <g id="text_48">
    <text style="font-size: 10px; font-family: 'DejaVu Sans'; text-anchor: start" x="580.254688" y="609.282187" transform="rotate(-0 580.254688 609.282187)">Buy Price</text>
   </g>
   <g id="line2d_83">
    <path d="M 552.254688 620.460312 
L 562.254688 620.460312 
L 562.254688 620.460312 
L 572.254688 620.460312 
L 572.254688 620.460312 
" style="fill: none; stroke-dasharray: 1.5,2.475; stroke-dashoffset: 0; stroke: #3f51b5; stroke-opacity: 0.35; stroke-width: 1.5"/>
   </g>
   <g id="text_49">
    <text style="font-size: 10px; font-family: 'DejaVu Sans'; text-anchor: start" x="580.254688" y="623.960312" transform="rotate(-0 580.254688 623.960312)">Buy Price (Risk Bias)</text>
   </g>
   <g id="line2d_84">
    <path d="M 702.807812 591.104063 
L 712.807812 591.104063 
L 712.807812 591.104063 
L 722.807812 591.104063 
L 722.807812 591.104063 
" style="fill: none; stroke: #e91e63; stroke-width: 2; stroke-linecap: square"/>
   </g>
   <g id="text_50">
    <text style="font-size: 10px; font-family: 'DejaVu Sans'; text-anchor: start" x="730.807812" y="594.604063" transform="rotate(-0 730.807812 594.604063)">Sell Price</text>
   </g>
   <g id="line2d_85">
    <path d="M 702.807812 605.782187 
L 712.807812 605.782187 
L 712.807812 605.782187 
L 722.807812 605.782187 
L 722.807812 605.782187 
" style="fill: none; stroke-dasharray: 1.5,2.475; stroke-dashoffset: 0; stroke: #e91e63; stroke-opacity: 0.35; stroke-width: 1.5"/>
   </g>
   <g id="text_51">
    <text style="font-size: 10px; font-family: 'DejaVu Sans'; text-anchor: start" x="730.807812" y="609.282187" transform="rotate(-0 730.807812 609.282187)">Sell Price (Risk Bias)</text>
   </g>
  </g>
 </g>
 <defs>
  <clipPath id="pd5489157d7">
   <rect x="69.12" y="51.84" width="898.56" height="492.48"/>
  </clipPath>
 </defs>
</svg>
